<?xml version="1.0" standalone="no"?>
<!DOCTYPE svg PUBLIC "-//W3C//DTD SVG 20010904//EN"
 "http://www.w3.org/TR/2001/REC-SVG-20010904/DTD/svg10.dtd">
<svg version="1.0" xmlns="http://www.w3.org/2000/svg"
 width="596.000000pt" height="745.000000pt" viewBox="0 0 596.000000 745.000000"
 preserveAspectRatio="xMidYMid meet">

<g transform="translate(0.000000,745.000000) scale(0.100000,-0.100000)"
fill="#000000" stroke="none">
<path d="M0 7406 c0 -26 5 -46 13 -49 9 -4 9 -6 0 -6 -10 -1 -13 -784 -13
-3676 l0 -3675 2980 0 2980 0 0 1365 c0 780 -4 1365 -9 1365 -5 0 -5 16 -1 36
5 19 8 99 9 176 0 106 -3 147 -15 169 -13 26 -13 29 1 29 13 0 15 17 13 121
-1 66 -5 122 -10 125 -4 3 -8 12 -8 20 0 8 5 12 10 9 7 -4 10 15 9 55 -2 54
-4 61 -21 57 -10 -3 -18 -1 -18 4 0 5 7 9 15 9 8 0 15 9 15 20 0 11 -4 20 -10
20 -5 0 -10 -4 -10 -10 0 -5 -4 -10 -10 -10 -16 0 -12 27 5 34 8 3 15 13 15
23 0 14 2 15 9 4 5 -8 10 79 10 218 1 127 -2 231 -6 231 -18 -1 -36 -19 -38
-41 -2 -13 -10 -37 -19 -54 -15 -28 -16 -28 -16 -7 0 14 -4 21 -11 16 -6 -3
-8 -17 -5 -29 3 -13 2 -27 -4 -30 -10 -6 -13 10 -11 50 1 18 0 18 -11 -2 -13
-26 -43 -30 -52 -8 -3 10 1 15 13 15 10 0 21 9 24 20 4 15 14 20 41 20 40 0
49 16 14 23 l-23 4 22 2 c12 0 27 10 33 21 6 11 20 20 30 20 15 0 20 7 20 25
0 14 -4 25 -10 25 -5 0 -10 9 -10 20 0 11 5 20 10 20 21 0 9 30 -12 31 l-23 0
23 11 c12 6 22 19 22 30 0 22 -13 23 -30 3 -7 -8 -20 -15 -28 -15 -12 0 -13 3
-4 12 17 17 15 26 -7 33 -10 3 -21 15 -24 25 -5 21 7 27 18 10 3 -6 18 -7 33
-4 40 10 44 14 31 30 -9 11 -9 14 0 14 8 0 11 21 9 68 l-3 69 -33 0 c-18 0
-28 -4 -21 -7 14 -9 2 -15 -37 -19 -43 -3 -53 23 -15 40 20 9 28 20 27 36 0
13 -6 23 -13 23 -6 0 -14 4 -18 9 -7 12 38 10 45 -1 3 -4 18 -1 32 6 15 8 29
12 31 9 3 -2 3 17 1 44 -2 26 -3 56 -4 66 0 11 -4 15 -12 11 -8 -5 -9 -2 -5 9
3 10 3 17 -2 17 -16 0 -19 -12 -11 -44 4 -19 4 -40 -1 -47 -6 -10 -9 -2 -9 21
0 47 -15 71 -25 41 -4 -13 -1 -28 5 -36 10 -12 9 -15 -9 -15 -12 0 -24 -6 -27
-13 -2 -7 -16 -14 -29 -15 -19 -1 -25 3 -25 18 0 10 5 22 10 25 6 3 10 1 10
-4 0 -22 20 -10 21 12 1 16 2 18 6 5 7 -27 18 -21 20 11 3 37 46 84 63 67 8
-8 10 -7 5 5 -3 9 0 23 9 31 11 11 13 33 11 87 -2 40 -6 75 -8 78 -3 2 -1 20
3 39 6 27 4 40 -8 54 -8 11 -19 17 -24 14 -5 -3 -8 -2 -7 3 1 4 1 15 0 23 -1
12 -5 11 -16 -4 -13 -17 -15 -17 -21 -3 -3 10 -12 17 -19 17 -8 0 -17 5 -21
12 -5 8 -2 9 11 4 15 -5 16 -4 5 9 -17 20 2 44 22 28 23 -18 58 -22 58 -7 0 8
7 14 15 14 8 0 15 9 15 20 0 11 -5 20 -11 20 -5 0 -7 -4 -4 -10 9 -14 -18 -13
-33 2 -8 8 -15 8 -28 -3 -14 -12 -19 -10 -35 11 -10 14 -25 33 -34 43 -9 10
-14 25 -11 33 3 8 1 14 -4 14 -5 0 -11 -8 -13 -17 -3 -11 -5 -7 -6 10 -1 18 4
27 14 27 8 0 16 -4 16 -10 1 -5 2 -15 3 -20 0 -6 6 -14 12 -18 6 -4 14 -16 19
-27 8 -18 9 -17 13 8 3 26 6 28 34 22 21 -5 28 -4 24 4 -5 7 2 11 18 11 25 0
26 3 26 52 0 28 -3 49 -6 45 -10 -9 -44 26 -44 46 0 13 -5 17 -15 13 -10 -4
-15 1 -15 15 0 11 -4 17 -10 14 -5 -3 -10 -2 -10 3 0 6 16 12 36 14 32 4 36 2
41 -24 10 -52 23 -40 23 22 0 52 -5 69 -30 107 -34 49 -35 54 -17 50 6 -1 11
4 10 11 -2 6 6 12 17 12 15 0 20 7 20 26 0 23 -28 66 -32 47 0 -4 -2 -12 -3
-18 -2 -5 -3 -16 -4 -22 -2 -20 -21 -15 -21 5 0 14 -2 15 -10 2 -8 -12 -10
-12 -11 5 0 16 -3 14 -11 -7 -7 -20 -17 -28 -34 -28 -13 0 -23 5 -21 12 1 7
-5 13 -13 14 -36 3 -40 5 -40 14 0 5 7 7 15 4 9 -4 15 0 15 10 0 10 9 16 24
16 18 0 26 7 30 28 7 30 86 85 86 59 0 -7 -5 -18 -11 -24 -8 -8 -5 -15 9 -24
10 -8 21 -21 25 -29 3 -8 6 10 6 41 1 30 -4 60 -10 66 -8 8 -8 13 0 17 6 4 11
30 11 57 0 49 0 49 -27 43 -16 -4 -33 -11 -40 -16 -7 -5 -17 -7 -22 -4 -16 10
-2 34 22 38 28 4 33 26 8 36 -11 4 -20 9 -20 12 0 19 -16 40 -32 40 -15 0 -19
-7 -19 -36 0 -19 -7 -42 -15 -50 -8 -9 -15 -11 -15 -5 0 5 -8 12 -17 14 -17 4
-17 5 0 6 10 0 16 5 12 11 -3 5 -12 7 -19 4 -19 -7 -31 15 -17 29 9 9 11 8 6
-5 -10 -26 7 -22 37 10 55 56 68 64 74 47 4 -8 14 -15 24 -15 10 0 22 -9 25
-20 12 -39 32 -22 31 28 -1 45 -2 47 -34 52 -36 6 -41 27 -4 22 23 -3 31 13
10 21 -7 3 -3 6 10 6 l22 1 -1 208 c-1 114 -4 201 -6 195 -7 -21 -23 -15 -23
8 0 15 5 19 15 15 12 -4 14 12 13 109 -1 114 -1 115 -24 115 -22 0 -23 2 -12
25 6 14 17 25 25 25 7 0 13 11 13 25 0 14 -5 25 -10 25 -6 0 -15 11 -20 25
-10 28 -34 32 -55 11 -10 -10 -11 -16 -2 -25 6 -6 8 -11 5 -11 -4 0 -1 -12 7
-27 15 -28 3 -69 -15 -58 -6 3 -15 -5 -22 -19 -14 -33 -58 -37 -58 -6 0 13 -7
20 -20 20 -11 0 -20 5 -20 10 0 6 9 10 20 10 14 0 20 7 21 23 1 17 3 15 10
-10 11 -36 24 -35 52 3 19 25 19 25 -2 31 -11 3 -19 9 -16 13 3 5 1 11 -5 15
-6 4 -4 12 5 22 12 11 13 19 5 28 -9 11 -3 13 32 10 24 -3 53 -7 66 -11 25 -7
31 13 10 34 -9 9 -9 12 0 12 9 0 12 50 12 195 0 199 -4 219 -36 178 -13 -17
-14 -17 -8 0 5 15 -1 17 -50 17 -31 0 -56 -4 -56 -10 0 -5 5 -10 11 -10 5 0 7
-5 3 -12 -5 -8 -13 -5 -25 10 l-17 22 -2891 0 -2891 0 0 -44z m5374 23 c-5 -9
1 -10 20 -5 15 4 26 2 26 -4 0 -5 -21 -10 -47 -10 -43 0 -45 1 -27 15 23 17
38 19 28 4z m-1091 -20 c4 -15 2 -18 -7 -10 -7 6 -16 8 -20 4 -4 -4 -4 0 0 10
8 23 20 21 27 -4z m527 5 c0 -8 -4 -12 -10 -9 -5 3 -10 10 -10 16 0 5 5 9 10
9 6 0 10 -7 10 -16z m660 -4 c0 -5 -4 -10 -10 -10 -5 0 -10 5 -10 10 0 6 5 10
10 10 6 0 10 -4 10 -10z m168 -11 c3 -8 1 -11 -3 -6 -5 4 -16 0 -25 -8 -16
-14 -18 -14 -23 0 -4 9 -1 15 8 15 8 0 15 5 15 11 0 15 23 6 28 -12z m-726
-11 c-7 -7 -12 -8 -12 -2 0 14 12 26 19 19 2 -3 -1 -11 -7 -17z m-1227 2 c3
-5 -1 -10 -9 -10 -9 0 -16 5 -16 10 0 6 4 10 9 10 6 0 13 -4 16 -10z m665 0
c0 -5 -4 -10 -9 -10 -6 0 -13 5 -16 10 -3 6 1 10 9 10 9 0 16 -4 16 -10z m890
0 c0 -5 -5 -10 -11 -10 -5 0 -7 5 -4 10 3 6 8 10 11 10 2 0 4 -4 4 -10z m35
-11 c-4 -5 -2 -9 3 -9 6 0 7 -10 4 -22 -5 -22 -6 -21 -18 7 -13 31 -9 50 7 39
5 -3 7 -10 4 -15z m560 -19 c-19 -21 -35 -18 -35 6 0 8 7 14 15 14 8 0 15 5
15 12 0 9 3 9 12 0 9 -9 7 -16 -7 -32z m-341 -28 c4 -12 13 -22 19 -22 10 -1
-48 -30 -59 -30 -2 0 -4 14 -4 30 0 17 4 30 9 30 5 0 6 10 3 23 -5 20 -4 20
10 7 8 -9 19 -26 22 -38z m-354 16 c0 -18 -2 -20 -9 -8 -6 8 -7 18 -5 22 9 14
14 9 14 -14z m-134 -3 c-2 -14 -16 -22 -16 -10 0 3 0 10 0 15 0 6 4 10 9 10 5
0 8 -7 7 -15z m418 -12 c4 -9 2 -21 -3 -26 -7 -7 -13 -4 -17 9 -4 10 -12 22
-18 26 -6 5 -2 8 10 8 12 0 25 -8 28 -17z m-1244 -27 c-17 -22 -32 -9 -19 16
8 14 14 17 22 9 7 -7 6 -15 -3 -25z m680 24 c0 -5 -5 -10 -11 -10 -5 0 -7 5
-4 10 3 6 8 10 11 10 2 0 4 -4 4 -10z m-4050 -30 c0 -5 -5 -10 -11 -10 -5 0
-7 5 -4 10 3 6 8 10 11 10 2 0 4 -4 4 -10z m3810 0 c0 -5 -4 -10 -10 -10 -5 0
-10 5 -10 10 0 6 5 10 10 10 6 0 10 -4 10 -10z m238 -29 c-16 -26 -24 -26 -32
-4 -5 11 -1 22 10 30 25 18 39 1 22 -26z m769 15 l21 -24 -20 -19 c-19 -16
-21 -16 -15 -1 4 11 0 19 -14 23 -15 5 -17 10 -9 26 13 24 12 24 37 -5z m294
-34 c-6 -2 -11 -12 -11 -22 0 -22 -21 -32 -41 -19 -12 8 -12 10 0 18 7 5 10
14 7 20 -5 7 2 11 18 11 21 0 26 5 27 28 l2 27 4 -30 c3 -16 0 -31 -6 -33z
m-1229 23 c3 -14 1 -25 -3 -25 -5 0 -9 4 -9 9 0 5 -3 16 -6 25 -3 9 -2 16 4
16 5 0 12 -11 14 -25z m118 10 c0 -8 -4 -15 -8 -15 -5 0 -9 7 -9 15 0 8 4 15
9 15 4 0 8 -7 8 -15z m396 -9 c0 -13 -4 -22 -8 -20 -3 2 -9 -4 -11 -13 -3 -10
-5 -4 -6 14 0 17 5 34 12 36 6 3 13 6 13 6 1 1 1 -10 0 -23z m-976 -7 c0 -5
-4 -9 -10 -9 -5 0 -10 7 -10 16 0 8 5 12 10 9 6 -3 10 -10 10 -16z m220 1 c0
-5 -4 -10 -10 -10 -5 0 -10 5 -10 10 0 6 5 10 10 10 6 0 10 -4 10 -10z m1067
-22 c-3 -7 -5 -2 -5 12 0 14 2 19 5 13 2 -7 2 -19 0 -25z m-3827 14 c0 -4 -10
-16 -22 -26 -19 -16 -20 -17 -15 -1 4 9 7 21 7 26 0 5 7 9 15 9 8 0 15 -3 15
-8z m2145 -2 c3 -5 1 -10 -4 -10 -6 0 -11 5 -11 10 0 6 2 10 4 10 3 0 8 -4 11
-10z m180 0 c3 -5 1 -10 -4 -10 -6 0 -11 5 -11 10 0 6 2 10 4 10 3 0 8 -4 11
-10z m1062 -12 c-3 -8 -6 -5 -6 6 -1 11 2 17 5 13 3 -3 4 -12 1 -19z m313 1
c7 -11 10 -23 7 -25 -6 -6 -37 25 -37 37 0 17 19 9 30 -12z m-4393 5 c-3 -3
-12 -4 -19 -1 -8 3 -5 6 6 6 11 1 17 -2 13 -5z m4335 -8 c13 8 1 -66 -13 -80
-13 -14 -23 0 -14 21 5 10 8 32 8 48 -1 17 1 24 4 17 3 -6 9 -9 15 -6z m-1739
-10 c4 -10 0 -12 -15 -8 -15 4 -17 7 -6 13 17 11 15 11 21 -5z m1371 -12 c9
-8 16 -22 16 -30 0 -16 -8 -10 -39 29 -17 21 2 23 23 1z m594 -10 c-9 -9 -21
-13 -27 -10 -20 13 -11 26 16 26 25 0 26 -1 11 -16z m-3663 -4 c3 -5 -1 -10
-9 -10 -9 0 -16 5 -16 10 0 6 4 10 9 10 6 0 13 -4 16 -10z m2759 -2 c-3 -4 -9
-8 -15 -8 -5 0 -9 4 -9 8 0 5 7 9 15 9 8 0 12 -4 9 -9z m191 -6 c-3 -3 -11 0
-18 7 -9 10 -8 11 6 5 10 -3 15 -9 12 -12z m85 14 c0 -11 -19 -15 -25 -6 -3 5
1 10 9 10 9 0 16 -2 16 -4z m330 -6 c0 -5 -2 -10 -4 -10 -3 0 -8 5 -11 10 -3
6 -1 10 4 10 6 0 11 -4 11 -10z m420 -16 c0 -20 -7 -17 -20 6 -9 16 -8 18 5
14 8 -4 15 -12 15 -20z m-1195 -11 c-9 -8 -19 -13 -22 -9 -9 8 18 37 28 30 5
-3 2 -12 -6 -21z m955 -3 c0 -14 -7 -18 -28 -18 -24 1 -28 5 -24 23 3 17 9 21
28 17 15 -3 24 -11 24 -22z m500 20 c0 -5 -4 -10 -10 -10 -5 0 -10 5 -10 10 0
6 5 10 10 10 6 0 10 -4 10 -10z m-1360 -9 c0 -6 -4 -13 -10 -16 -5 -3 -10 1
-10 9 0 9 5 16 10 16 6 0 10 -4 10 -9z m480 -1 c0 -5 -4 -10 -10 -10 -5 0 -10
5 -10 10 0 6 5 10 10 10 6 0 10 -4 10 -10z m460 -12 l25 2 -22 -12 c-25 -12
-32 -31 -9 -22 22 8 27 -45 5 -56 -25 -14 -26 -13 -26 17 0 14 -8 32 -18 39
-20 15 -13 50 7 37 7 -4 24 -6 38 -5z m230 -8 c0 -11 -4 -20 -9 -20 -11 0 -22
26 -14 34 12 12 23 5 23 -14z m-1870 -5 c0 -8 -4 -15 -10 -15 -5 0 -7 7 -4 15
4 8 8 15 10 15 2 0 4 -7 4 -15z m1384 -6 c-6 -11 -24 -2 -24 11 0 5 7 7 15 4
8 -4 12 -10 9 -15z m-214 -31 c0 -5 -9 -4 -20 2 -11 6 -20 18 -20 27 0 14 2
14 20 -2 11 -10 20 -22 20 -27z m-200 23 c0 -5 -7 -11 -15 -15 -9 -3 -15 0
-15 9 0 8 7 15 15 15 8 0 15 -4 15 -9z m-3943 -38 c-3 -10 -5 -4 -5 12 0 17 2
24 5 18 2 -7 2 -21 0 -30z m4924 27 c6 0 7 -4 4 -10 -8 -13 1 -13 28 1 17 9
19 9 11 -1 -8 -8 -9 -23 -1 -51 12 -48 6 -56 -25 -35 -21 15 -21 16 -3 17 11
0 14 3 8 6 -7 2 -13 11 -13 19 0 8 -6 14 -14 14 -9 0 -12 -11 -10 -35 1 -19
-1 -35 -6 -35 -4 0 -10 27 -12 60 -2 47 0 59 10 55 8 -3 18 -5 23 -5z m-5631
-8 c0 -4 -9 -8 -19 -8 -11 0 -17 4 -15 8 3 4 12 8 20 8 8 0 14 -4 14 -8z
m3787 2 c-3 -3 -12 -4 -19 -1 -8 3 -5 6 6 6 11 1 17 -2 13 -5z m1344 -10 c12
-14 14 -14 20 3 6 15 8 13 8 -8 1 -15 -6 -32 -14 -39 -8 -7 -15 -11 -16 -9 0
2 -2 14 -3 26 -4 31 -15 41 -26 23 -6 -8 -10 -10 -10 -4 0 26 22 31 41 8z
m266 -21 c-3 -10 -5 -4 -5 12 0 17 2 24 5 18 2 -7 2 -21 0 -30z m-1223 12 c-6
-16 -24 -21 -24 -7 0 11 11 22 21 22 5 0 6 -7 3 -15z m-3804 -5 c0 -5 -4 -10
-10 -10 -5 0 -10 5 -10 10 0 6 5 10 10 10 6 0 10 -4 10 -10z m182 -12 c-7 -7
-12 -8 -12 -2 0 14 12 26 19 19 2 -3 -1 -11 -7 -17z m3986 4 c2 -7 -2 -10 -12
-6 -12 4 -16 0 -16 -16 0 -11 -4 -19 -9 -16 -15 9 0 57 17 54 8 -2 17 -9 20
-16z m673 -14 c11 -21 11 -22 -4 -9 -10 7 -17 17 -17 22 0 15 9 10 21 -13z
m-881 -39 c0 -6 -7 -8 -16 -5 -9 3 -18 6 -20 6 -2 0 -4 7 -4 15 0 13 4 14 20
5 11 -6 20 -16 20 -21z m1056 9 c-3 -13 -3 -17 0 -10 3 6 10 10 15 6 18 -10 9
-24 -16 -24 -14 0 -25 -4 -25 -9 0 -10 -40 -19 -58 -13 -18 6 -15 39 4 46 9 4
22 2 29 -4 10 -8 15 -6 20 9 9 30 38 28 31 -1z m152 -19 c2 -40 2 -40 -28 -34
-28 6 -30 5 -30 -22 0 -21 -3 -24 -9 -13 -6 8 -7 18 -4 23 3 4 5 24 5 43 0 25
3 32 12 25 7 -6 18 -4 30 5 11 8 20 14 21 14 1 0 2 -18 3 -41z m-3941 9 c-3
-8 -6 -5 -6 6 -1 11 2 17 5 13 3 -3 4 -12 1 -19z m2799 -35 c-14 -14 -23 4
-13 27 l10 25 5 -23 c2 -13 1 -26 -2 -29z m648 32 c-4 -8 -7 -15 -9 -15 -2 0
-5 7 -9 15 -3 9 0 15 9 15 9 0 12 -6 9 -15z m193 -5 c-3 -13 1 -21 14 -25 10
-4 18 -9 18 -13 -4 -25 2 -35 13 -24 17 17 27 15 24 -5 -2 -11 -13 -19 -29
-21 -15 -2 -27 -9 -27 -17 0 -9 -7 -11 -22 -7 -16 4 -18 7 -8 10 32 11 39 28
20 45 -10 8 -20 14 -22 12 -2 -3 -2 11 0 30 2 19 9 35 14 35 6 0 8 -9 5 -20z
m-546 -21 c-17 -18 -21 -20 -21 -6 0 9 8 20 17 26 26 14 28 5 4 -20z m-3111 0
c0 -6 -4 -7 -10 -4 -5 3 -10 11 -10 16 0 6 5 7 10 4 6 -3 10 -11 10 -16z
m3267 15 c-3 -3 -12 -4 -19 -1 -8 3 -5 6 6 6 11 1 17 -2 13 -5z m734 -24 c20
0 23 -8 13 -34 -7 -19 -30 -21 -32 -3 0 6 -3 23 -6 37 -4 14 -4 19 0 13 3 -7
14 -13 25 -13z m-4491 -22 c0 -19 -2 -20 -10 -8 -13 19 -13 30 0 30 6 0 10
-10 10 -22z m173 2 c-3 -10 -11 -24 -17 -29 -10 -8 -11 -3 -8 19 2 17 10 30
17 30 8 0 11 -8 8 -20z m3440 -23 c-4 -19 -10 -23 -27 -20 -18 4 -25 -1 -29
-18 -3 -12 -2 -30 3 -40 7 -12 5 -21 -5 -29 -8 -7 -15 -9 -16 -4 0 5 -4 0 -9
-11 -7 -17 -9 -17 -9 -2 -1 9 -5 17 -11 17 -5 0 -10 8 -10 18 0 10 -5 23 -11
29 -7 7 -7 13 -1 17 6 3 13 -3 17 -14 13 -40 26 -25 38 45 3 20 7 21 37 12 8
-2 12 -2 7 0 -10 7 2 23 17 23 8 0 12 -9 9 -23z m189 -6 c3 -23 1 -27 -14 -23
-25 6 -23 52 3 52 3 0 9 -13 11 -29z m658 25 c0 -11 -19 -15 -25 -6 -3 5 1 10
9 10 9 0 16 -2 16 -4z m-590 -27 c0 -18 -2 -19 -15 -9 -15 12 -12 30 6 30 5 0
9 -10 9 -21z m106 -14 c-3 -9 1 -18 9 -22 13 -5 13 -7 -2 -20 -17 -14 -17 -14
2 -8 13 4 16 3 10 -3 -5 -5 -20 -13 -32 -17 -17 -5 -23 -2 -23 9 0 9 -7 16
-15 16 -9 0 -15 9 -15 22 0 17 3 19 12 10 18 -18 38 -14 38 8 0 11 5 20 11 20
6 0 8 -7 5 -15z m291 -12 c14 -17 14 -17 9 0 -3 9 -1 17 4 17 6 0 10 -9 10
-19 0 -11 5 -23 10 -26 6 -3 10 -11 10 -16 0 -17 -57 20 -63 41 -6 25 1 26 20
3z m-499 -13 c7 -11 9 -20 4 -20 -10 0 -32 22 -32 32 0 15 15 8 28 -12z m309
14 c-3 -3 -12 -4 -19 -1 -8 3 -5 6 6 6 11 1 17 -2 13 -5z m329 -22 c1 -12 -2
-22 -6 -22 -4 0 -7 -7 -7 -15 0 -11 7 -13 25 -8 19 4 23 3 17 -7 -5 -9 -2 -10
14 -5 15 5 21 2 21 -10 0 -12 -6 -14 -27 -9 -16 4 -30 8 -32 10 -9 8 -41 -30
-41 -50 0 -14 -3 -17 -10 -10 -12 12 -3 44 11 44 15 0 10 27 -6 34 -18 7 -20
47 -3 64 19 19 43 10 44 -16z m-4841 -2 c3 -5 1 -10 -4 -10 -6 0 -11 5 -11 10
0 6 2 10 4 10 3 0 8 -4 11 -10z m4050 -10 c3 -5 1 -10 -4 -10 -6 0 -11 5 -11
10 0 6 2 10 4 10 3 0 8 -4 11 -10z m248 -21 c17 -1 18 -2 5 -6 -10 -2 -18 -11
-18 -19 0 -27 -18 -14 -22 16 -5 31 5 54 10 26 2 -9 13 -17 25 -17z m360 16
c4 -8 2 -17 -3 -20 -6 -4 -10 3 -10 14 0 25 6 27 13 6z m-936 -17 c-3 -8 -6
-5 -6 6 -1 11 2 17 5 13 3 -3 4 -12 1 -19z m913 12 c0 -5 -2 -10 -4 -10 -3 0
-8 5 -11 10 -3 6 -1 10 4 10 6 0 11 -4 11 -10z m240 0 c0 -5 -2 -10 -4 -10 -3
0 -8 5 -11 10 -3 6 -1 10 4 10 6 0 11 -4 11 -10z m-1180 -20 c-7 -4 -9 -13 -6
-19 4 -6 3 -11 -3 -11 -15 0 -22 16 -15 33 3 9 12 13 21 10 11 -4 12 -8 3 -13z
m394 14 c20 -8 21 -34 1 -34 -8 0 -15 2 -15 4 0 2 -3 11 -6 20 -7 18 -4 19 20
10z m-64 -25 c0 -11 -4 -18 -10 -14 -5 3 -7 12 -3 20 7 21 13 19 13 -6z m496
-11 c-6 -18 -14 -38 -18 -44 -5 -7 1 -14 13 -17 12 -3 18 -10 14 -16 -3 -6
-10 -9 -15 -6 -4 3 -13 -2 -20 -10 -7 -8 -16 -12 -21 -9 -5 3 -9 0 -9 -5 0 -6
-5 -11 -11 -11 -12 0 -3 57 12 76 5 6 6 14 2 17 -3 4 -1 7 5 7 5 0 13 -6 15
-12 3 -7 6 -3 6 9 1 32 12 53 26 53 10 0 10 -7 1 -32z m78 15 c-17 -17 -17
-18 5 -21 13 -2 26 0 30 5 3 5 14 12 24 16 15 6 16 4 6 -16 -7 -12 -11 -24
-10 -27 1 -3 -11 -7 -26 -8 -17 -3 -32 3 -41 15 -10 13 -16 14 -19 6 -8 -21
-19 -15 -21 12 -1 14 3 25 8 25 6 0 10 -5 10 -12 0 -8 6 -6 17 5 10 9 21 17
26 17 5 0 1 -8 -9 -17z m-154 -13 c0 -14 -6 -20 -22 -19 -13 0 -17 3 -10 6 6
2 12 11 12 19 0 8 5 14 10 14 6 0 10 -9 10 -20z m302 3 c-10 -4 -8 -11 9 -29
12 -13 19 -27 14 -31 -4 -5 -10 -2 -12 5 -3 6 -11 12 -19 12 -23 0 -28 30 -8
45 11 7 21 11 24 8 3 -3 -1 -8 -8 -10z m-591 -18 c0 -14 -23 -17 -40 -6 -20
13 -4 31 20 23 11 -5 20 -12 20 -17z m204 5 c19 -8 19 -9 -2 -9 -12 -1 -25 4
-28 9 -7 12 2 12 30 0z m-4055 -20 c0 -5 -2 -10 -4 -10 -3 0 -8 5 -11 10 -3 6
-1 10 4 10 6 0 11 -4 11 -10z m3710 6 c0 -3 -4 -8 -10 -11 -5 -3 -10 -1 -10 4
0 6 5 11 10 11 6 0 10 -2 10 -4z m1020 -6 c0 -5 8 -10 18 -11 14 0 14 -2 -3
-9 -30 -13 -35 -12 -35 10 0 11 5 20 10 20 6 0 10 -4 10 -10z m-4240 -4 c0 -3
-4 -8 -10 -11 -5 -3 -10 -1 -10 4 0 6 5 11 10 11 6 0 10 -2 10 -4z m3406 -8
c4 -7 3 -8 -4 -4 -7 4 -12 2 -12 -5 0 -7 -3 -10 -6 -6 -6 5 3 27 11 27 2 0 7
-5 11 -12z m184 2 c0 -5 -7 -7 -15 -4 -8 4 -15 8 -15 10 0 2 7 4 15 4 8 0 15
-4 15 -10z m-518 -30 c-2 -16 -9 -30 -14 -30 -6 0 -7 7 -4 16 3 9 6 22 6 30 0
8 4 14 8 14 5 0 7 -13 4 -30z m272 -21 c-13 -22 -34 -8 -34 24 l1 32 19 -24
c11 -12 17 -27 14 -32z m767 41 c5 0 9 -4 9 -10 0 -16 -37 -11 -44 6 -5 12 -2
15 10 10 8 -3 20 -6 25 -6z m-288 -27 c-3 -56 -14 -73 -44 -73 -23 0 -29 -4
-29 -22 -1 -13 -7 -34 -14 -46 -11 -21 -14 -22 -28 -9 -11 12 -18 13 -27 4 -8
-8 -11 -6 -11 11 0 12 9 26 20 32 11 6 20 19 20 30 0 23 16 35 23 18 5 -15 46
29 47 50 0 6 7 12 15 12 8 0 15 5 15 10 0 6 3 10 8 10 4 0 6 -12 5 -27z m233
0 c7 -10 14 -24 14 -30 0 -19 -17 -16 -24 5 -3 9 -9 23 -12 30 -9 18 7 15 22
-5z m-49 -40 c-3 -10 -5 -4 -5 12 0 17 2 24 5 18 2 -7 2 -21 0 -30z m203 6 c0
-10 5 -19 10 -19 6 0 10 4 10 9 0 4 11 6 25 3 20 -3 23 -7 15 -22 -6 -10 -10
-32 -10 -49 0 -33 -26 -44 -36 -16 -4 8 -15 15 -25 15 -17 0 -18 3 -9 21 6 11
9 25 6 32 -2 7 -5 3 -7 -8 -1 -11 -4 -4 -8 15 -6 33 4 54 21 44 4 -3 8 -14 8
-25z m-1313 -1 c-3 -8 -6 -5 -6 6 -1 11 2 17 5 13 3 -3 4 -12 1 -19z m53 12
c0 -5 -2 -10 -4 -10 -3 0 -8 5 -11 10 -3 6 -1 10 4 10 6 0 11 -4 11 -10z m280
-10 c23 -23 24 -29 10 -66 -9 -22 -13 -25 -23 -14 -9 10 -9 13 1 17 14 6 16
43 2 43 -5 0 -10 -5 -10 -12 0 -6 -6 -3 -14 7 -14 19 -11 45 5 45 5 0 18 -9
29 -20z m-3884 -15 c-9 -9 -16 -21 -16 -26 0 -6 -4 -8 -9 -5 -10 7 -23 48 -13
42 4 -2 16 0 27 4 27 10 31 4 11 -15z m4771 9 c-3 -3 -12 -4 -19 -1 -8 3 -5 6
6 6 11 1 17 -2 13 -5z m-413 -19 c-4 -8 -8 -15 -10 -15 -2 0 -4 7 -4 15 0 8 4
15 10 15 5 0 7 -7 4 -15z m-754 -5 c0 -5 -4 -10 -10 -10 -5 0 -10 5 -10 10 0
6 5 10 10 10 6 0 10 -4 10 -10z m678 -18 c2 -7 -3 -12 -12 -12 -9 0 -16 7 -16
16 0 17 22 14 28 -4z m282 -2 c-8 -5 -17 -7 -19 -4 -3 3 1 9 9 14 8 5 17 7 19
4 3 -3 -1 -9 -9 -14z m105 -2 c-19 -11 -30 -5 -21 11 4 6 14 7 22 4 15 -5 14
-7 -1 -15z m-705 2 c0 -5 -9 -14 -19 -19 -15 -9 -20 -7 -24 9 -4 16 0 20 19
20 13 0 24 -4 24 -10z m120 -45 c0 -13 -4 -27 -10 -30 -6 -4 -10 6 -10 22 0
22 -2 25 -10 13 -5 -8 -10 -12 -11 -7 -8 42 -3 50 22 37 11 -6 19 -21 19 -35z
m375 15 c-6 -9 -10 -9 -16 1 -6 10 -9 11 -9 2 0 -7 -4 -13 -10 -13 -15 0 -7
24 10 31 19 8 35 -5 25 -21z m365 15 c0 -8 -2 -15 -4 -15 -2 0 -6 7 -10 15 -3
8 -1 15 4 15 6 0 10 -7 10 -15z m-1073 -17 c-3 -8 -6 -5 -6 6 -1 11 2 17 5 13
3 -3 4 -12 1 -19z m489 6 c13 -3 24 -13 24 -21 0 -12 -3 -12 -22 1 -12 9 -30
16 -40 16 -10 0 -18 5 -18 11 0 6 7 8 16 5 9 -3 27 -9 40 -12z m412 -2 c3 -9
-4 -11 -25 -6 -44 10 -54 26 -14 22 19 -2 36 -9 39 -16z m-638 -13 c0 -6 -4
-7 -10 -4 -5 3 -10 11 -10 16 0 6 5 7 10 4 6 -3 10 -11 10 -16z m511 3 c-6
-12 -7 -22 -1 -28 12 -12 -18 -40 -40 -38 -8 1 -21 2 -27 3 -20 2 -15 21 5 21
9 0 24 5 32 10 13 9 13 12 -3 24 -18 14 -18 14 0 19 38 10 44 8 34 -11z m269
3 c0 -8 -7 -15 -15 -15 -9 0 -12 6 -9 15 4 8 10 15 15 15 5 0 9 -7 9 -15z
m-4630 -13 c0 -5 -7 -9 -15 -9 -8 0 -15 4 -15 9 0 4 7 8 15 8 8 0 15 -4 15 -8z
m3489 -23 c-9 -5 -15 -4 -18 2 -2 6 3 15 10 20 9 5 15 4 18 -2 2 -6 -3 -15
-10 -20z m951 12 c0 -10 -9 -21 -20 -24 -19 -5 -19 -4 -2 19 21 29 22 29 22 5z
m230 0 c0 -17 -12 -41 -21 -41 -10 0 -12 33 -2 43 9 10 23 9 23 -2z m38 -14
c7 -8 7 -18 2 -27 -5 -8 -7 -17 -5 -21 3 -3 -7 -4 -20 -1 -28 5 -33 -9 -10
-28 8 -7 15 -9 15 -6 0 4 7 1 15 -8 19 -18 19 -32 1 -39 -17 -7 -26 1 -26 24
0 25 -31 34 -37 11 -3 -14 -11 -18 -28 -14 -31 6 -21 32 12 32 15 0 23 5 20
13 -2 6 10 21 27 31 18 11 26 21 19 23 -15 5 -18 23 -4 23 5 0 13 -6 19 -13z
m-5428 -12 c0 -8 -2 -15 -4 -15 -2 0 -6 7 -10 15 -3 8 -1 15 4 15 6 0 10 -7
10 -15z m4260 5 c0 -5 -7 -10 -15 -10 -8 0 -15 5 -15 10 0 6 7 10 15 10 8 0
15 -4 15 -10z m240 -10 c0 -5 -5 -10 -11 -10 -5 0 -7 5 -4 10 3 6 8 10 11 10
2 0 4 -4 4 -10z m-37 -37 c-8 -20 -27 -10 -31 16 -3 20 -1 21 16 10 11 -7 18
-19 15 -26z m402 27 c3 -5 -1 -10 -9 -10 -9 0 -16 5 -16 10 0 6 4 10 9 10 6 0
13 -4 16 -10z m369 -5 c6 -18 -22 -35 -58 -35 -29 0 -35 18 -8 26 9 3 24 9 32
14 22 13 27 12 34 -5z m-226 -17 c2 -8 -4 -15 -13 -15 -8 0 -15 9 -15 20 0 22
23 18 28 -5z m-256 -15 c16 -39 17 -63 3 -63 -7 0 -13 6 -12 13 1 34 -5 47
-20 48 -15 1 -14 2 2 7 l20 5 -20 8 c-17 7 -18 8 -2 8 10 1 22 -11 29 -26z
m368 12 c0 -17 -47 -51 -57 -41 -7 7 36 54 50 55 4 1 7 -6 7 -14z m-783 -32
c-1 -10 3 -19 8 -20 6 -2 10 3 10 10 0 20 20 27 51 17 l29 -8 -30 -2 c-26 -1
-27 -3 -10 -10 19 -8 19 -9 -2 -9 -25 -1 -39 -16 -23 -26 5 -3 10 -20 10 -38
0 -24 -3 -28 -12 -19 -8 8 -15 8 -24 1 -7 -6 -17 -8 -22 -5 -13 8 -22 56 -10
56 4 0 6 11 2 24 -6 26 1 46 16 46 6 0 9 -8 7 -17z m-4049 -5 c-16 -5 -28 -15
-28 -21 0 -13 -20 13 -20 26 0 4 17 7 38 6 36 -1 37 -1 10 -11z m4270 -32
c-10 -7 -18 -16 -18 -20 0 -9 -26 -36 -34 -36 -3 0 -6 12 -5 28 0 15 3 21 6
15 7 -19 33 10 33 38 0 22 1 23 18 6 16 -17 16 -19 0 -31z m122 35 c0 -5 8
-12 19 -16 13 -4 17 -12 13 -30 -5 -30 -22 -33 -22 -5 0 11 -7 20 -15 20 -8 0
-15 9 -15 20 0 11 5 20 10 20 6 0 10 -4 10 -9z m-416 -10 c3 -5 -1 -14 -8 -20
-12 -10 -14 -9 -11 6 2 10 4 19 4 21 2 5 10 2 15 -7z m641 -1 c3 -5 1 -10 -4
-10 -6 0 -11 5 -11 10 0 6 2 10 4 10 3 0 8 -4 11 -10z m235 -10 c0 -11 -4 -20
-10 -20 -5 0 -10 9 -10 20 0 11 5 20 10 20 6 0 10 -9 10 -20z m358 -5 c-3 -13
0 -26 6 -29 6 -2 3 -5 -6 -5 -11 -1 -18 -9 -18 -21 0 -11 -7 -20 -16 -20 -8 0
-12 -4 -9 -10 8 -14 2 -13 -31 5 -16 8 -24 15 -17 15 6 0 24 20 40 45 31 49
58 60 51 20z m-5161 -7 c-3 -8 -6 -5 -6 6 -1 11 2 17 5 13 3 -3 4 -12 1 -19z
m4956 15 c-7 -2 -19 -2 -25 0 -7 3 -2 5 12 5 14 0 19 -2 13 -5z m-314 -25 c12
-15 11 -18 -3 -18 -10 0 -16 8 -16 22 0 12 1 19 3 17 1 -2 9 -12 16 -21z m61
-13 c0 -16 -6 -25 -16 -25 -9 0 -18 -9 -21 -19 -5 -19 -34 -30 -65 -23 -19 4
-26 42 -8 42 6 0 10 -7 10 -15 0 -23 26 -18 54 10 14 14 23 25 20 25 -5 0 18
29 24 30 1 0 2 -11 2 -25z m142 2 c-3 -13 0 -18 11 -15 9 2 16 -1 15 -7 0 -5
-4 -9 -9 -7 -5 1 -9 -5 -9 -13 0 -8 -9 -15 -20 -15 -16 0 -19 6 -17 39 1 29 6
39 18 38 11 -1 14 -7 11 -20z m-910 -15 c-7 -2 -12 -8 -12 -13 0 -6 5 -7 10
-4 6 3 10 -2 10 -11 0 -16 -1 -16 -20 1 -25 22 -26 42 -2 47 19 4 32 -14 14
-20z m365 -4 c-3 -7 -5 -2 -5 12 0 14 2 19 5 13 2 -7 2 -19 0 -25z m683 21 c0
-5 4 -8 9 -4 5 3 12 1 16 -5 3 -6 -4 -10 -17 -10 -31 0 -50 -30 -33 -53 16
-22 25 -21 25 3 0 12 5 17 14 14 15 -6 10 -44 -5 -44 -5 0 -9 -4 -9 -10 0 -5
7 -7 15 -4 23 9 18 -22 -6 -39 -19 -14 -11 -35 9 -23 5 3 16 -4 25 -15 16 -17
16 -20 2 -26 -9 -3 -14 -12 -11 -19 3 -7 1 -16 -4 -19 -6 -4 -10 9 -10 29 0
37 -13 48 -24 21 -3 -8 -12 -15 -21 -15 -13 0 -14 -4 -5 -21 10 -18 9 -20 -7
-17 -10 2 -17 9 -16 15 1 5 -10 10 -25 9 -22 -1 -28 4 -30 27 -3 28 12 38 21
13 4 -9 19 -14 37 -14 27 1 31 4 28 27 -2 20 -8 25 -25 24 -21 -3 -23 1 -22
40 2 29 3 34 6 15 2 -16 11 -28 19 -28 16 0 19 26 4 35 -6 4 -8 11 -5 16 4 5
-1 9 -9 9 -30 0 -18 38 17 49 25 9 29 14 17 21 -13 8 -12 10 3 10 9 0 17 -5
17 -11z m-894 -26 c-10 -10 -19 5 -10 18 6 11 8 11 12 0 2 -7 1 -15 -2 -18z
m311 -5 c-3 -8 -6 -5 -6 6 -1 11 2 17 5 13 3 -3 4 -12 1 -19z m-583 -3 c-4 -8
-10 -15 -15 -15 -5 0 -9 7 -9 15 0 8 7 15 15 15 9 0 12 -6 9 -15z m746 0 c0
-8 -2 -15 -4 -15 -2 0 -6 7 -10 15 -3 8 -1 15 4 15 6 0 10 -7 10 -15z m230 5
c0 -5 -9 -14 -20 -20 -23 -12 -26 -6 -7 15 14 17 27 19 27 5z m-410 -20 c0 -5
8 -10 18 -11 9 0 12 -3 6 -5 -6 -3 -24 2 -40 11 -26 13 -27 15 -6 15 12 0 22
-4 22 -10z m195 -37 c20 -15 19 -15 -5 -9 -14 3 -29 6 -33 6 -5 0 -5 5 -2 10
8 14 16 12 40 -7z m300 0 c15 -34 15 -53 0 -53 -9 0 -12 -6 -9 -17 5 -15 4
-16 -5 -3 -8 11 -13 12 -19 3 -6 -9 -11 -7 -19 6 -10 16 -8 17 13 13 13 -2 24
-2 24 1 0 17 -14 37 -26 37 -8 0 -14 4 -14 9 0 8 14 15 41 20 4 0 10 -7 14
-16z m-105 -32 c0 -17 -4 -33 -10 -36 -6 -3 -7 1 -4 9 3 9 1 16 -5 16 -6 0
-11 -9 -11 -20 0 -21 -19 -28 -21 -7 0 10 -2 10 -6 0 -7 -18 -23 -16 -23 3 0
10 -6 13 -17 10 -10 -3 -25 -1 -33 4 -12 8 -9 10 13 10 16 0 26 4 22 9 -3 5
-1 12 5 16 5 3 10 -1 10 -9 0 -23 27 -20 33 4 3 12 14 20 26 20 17 0 21 -6 21
-29z m-773 4 c0 -8 -8 -15 -18 -15 -12 0 -16 5 -13 15 4 8 12 15 18 15 7 0 13
-7 13 -15z m43 -11 c0 -8 -4 -12 -10 -9 -5 3 -10 13 -10 21 0 8 5 12 10 9 6
-3 10 -13 10 -21z m325 6 c-4 -11 -2 -20 4 -20 6 0 2 -11 -10 -24 -23 -26 -65
-25 -55 1 3 8 6 21 6 28 0 8 7 11 20 8 12 -3 22 1 26 11 9 23 17 20 9 -4z
m727 -4 c5 -6 5 -24 1 -41 -3 -16 -5 -49 -4 -73 2 -41 1 -42 -19 -30 -14 9
-20 20 -17 35 2 13 -2 28 -9 34 -21 17 -17 29 11 29 14 0 25 5 25 10 0 7 -17
9 -42 6 -37 -4 -41 -3 -25 8 9 7 17 21 17 30 0 13 6 15 28 10 15 -4 30 -12 34
-18z m-1192 -6 c0 -13 -7 -20 -20 -20 -25 0 -25 9 -2 26 22 17 22 17 22 -6z
m642 8 c6 -18 -3 -58 -13 -58 -5 0 -9 9 -9 19 0 11 -5 23 -10 26 -6 4 -8 11
-5 16 9 13 33 11 37 -3z m-458 -40 c4 2 12 2 19 -1 6 -2 0 -6 -15 -9 -21 -4
-28 -1 -28 11 0 14 -2 14 -10 1 -5 -8 -10 -25 -10 -37 0 -14 -6 -23 -15 -23
-11 0 -12 -5 -5 -26 12 -32 12 -34 0 -34 -5 0 -10 9 -10 20 0 11 -4 20 -9 20
-5 0 -7 -10 -3 -22 4 -15 2 -19 -8 -13 -7 4 -16 2 -21 -6 -7 -11 -9 -11 -9 3
0 27 11 48 26 48 8 0 14 7 14 15 0 8 5 15 10 15 6 0 10 6 8 13 -2 6 6 24 17
39 l20 26 12 -21 c6 -12 14 -21 17 -19z m-3572 25 c-6 -2 -10 -9 -7 -13 3 -5
1 -11 -5 -15 -5 -3 -10 0 -10 8 0 17 10 27 24 26 6 0 5 -3 -2 -6z m3728 -5 c0
-6 -3 -8 -7 -5 -3 4 -12 2 -20 -5 -11 -8 -12 -7 -7 6 7 18 34 22 34 4z m206
-11 c1 -11 -5 -17 -17 -17 -21 0 -22 1 -13 25 8 20 26 15 30 -8z m679 14 c3
-5 1 -12 -5 -16 -5 -3 -10 1 -10 9 0 18 6 21 15 7z m-858 -58 c-3 -10 -5 -2
-5 17 0 19 2 27 5 18 2 -10 2 -26 0 -35z m-402 -12 c-17 -15 -17 -15 -11 2 3
10 6 26 6 35 1 15 2 15 11 -2 9 -14 7 -22 -6 -35z m132 33 c-3 -3 -12 -4 -19
-1 -8 3 -5 6 6 6 11 1 17 -2 13 -5z m1166 -36 c-5 -10 -33 2 -33 14 0 5 5 6
10 3 6 -3 10 2 11 12 0 16 1 16 8 -2 5 -11 7 -23 4 -27z m-5205 9 c2 -9 -1
-17 -7 -17 -6 0 -11 6 -11 14 0 8 -6 17 -12 20 -7 3 -4 5 7 3 11 -1 21 -10 23
-20z m4536 8 c-7 -16 -24 -21 -24 -6 0 8 7 13 27 20 1 1 0 -6 -3 -14z m191 -1
c12 -9 16 -18 10 -22 -12 -8 -14 -32 -2 -32 4 0 15 -8 25 -17 11 -10 31 -27
46 -37 25 -18 25 -21 11 -35 -15 -15 -17 -14 -26 2 -10 17 -39 24 -39 9 0 -10
45 -32 65 -32 8 0 18 -15 23 -32 6 -18 13 -41 17 -50 5 -13 2 -18 -8 -18 -17
0 -32 34 -22 49 3 5 1 12 -4 15 -5 3 -11 -1 -15 -9 -3 -8 -12 -15 -21 -15 -13
0 -14 4 -5 20 9 18 8 20 -15 20 -19 0 -25 5 -23 18 2 10 -2 16 -10 14 -9 -2
-11 4 -7 18 4 13 1 22 -9 26 -11 4 -13 14 -10 34 4 15 1 31 -5 34 -12 8 -15
56 -3 56 4 0 16 -7 27 -16z m95 -8 c0 -15 -18 -31 -26 -23 -7 7 7 37 17 37 5
0 9 -6 9 -14z m-5340 -22 c0 -8 -4 -12 -10 -9 -5 3 -10 13 -10 21 0 8 5 12 10
9 6 -3 10 -13 10 -21z m40 22 c0 -2 -7 -7 -16 -10 -8 -3 -12 -2 -9 4 6 10 25
14 25 6z m4880 -58 c0 -10 -4 -18 -9 -18 -10 0 -21 47 -13 55 8 7 22 -17 22
-37z m511 -18 c5 0 9 -4 9 -9 0 -7 -50 4 -69 16 -2 1 5 15 15 30 l18 28 9 -32
c6 -18 14 -33 18 -33z m-655 37 c8 3 14 0 14 -6 0 -6 -9 -11 -20 -11 -13 0
-20 6 -19 18 0 9 3 12 5 5 3 -7 12 -9 20 -6z m244 -12 c0 -8 -4 -15 -9 -15 -5
0 -18 -3 -28 -7 -17 -6 -17 -5 1 15 22 26 36 28 36 7z m183 8 c2 -5 1 -19 -3
-33 -6 -22 -8 -23 -15 -7 -6 14 -14 17 -34 12 l-26 -7 20 21 c20 20 50 27 58
14z m393 -30 c-11 -11 -19 6 -11 24 8 17 8 17 12 0 3 -10 2 -21 -1 -24z m-524
15 c-16 -16 -15 -88 1 -102 9 -7 11 -21 6 -41 -5 -22 -7 -24 -8 -9 0 12 -7 37
-15 55 -12 28 -16 31 -21 17 -10 -25 -34 -23 -32 2 1 12 8 20 20 20 15 0 18 5
14 22 -7 25 8 48 31 48 12 0 13 -3 4 -12z m-4667 -20 c6 -4 2 -8 -7 -8 -10 0
-18 7 -18 17 0 9 3 12 8 7 4 -5 12 -12 17 -16z m4940 12 c3 -5 -1 -10 -10 -10
-9 0 -13 5 -10 10 3 6 8 10 10 10 2 0 7 -4 10 -10z m-478 -40 c-1 -11 -7 -20
-14 -20 -11 0 -11 4 -1 20 7 11 14 20 15 20 1 0 1 -9 0 -20z m53 10 c0 -5 -4
-10 -10 -10 -5 0 -10 5 -10 10 0 6 5 10 10 10 6 0 10 -4 10 -10z m223 -10 c3
-11 1 -23 -4 -26 -5 -3 -9 6 -9 20 0 31 6 34 13 6z m-5028 -1 c11 -17 -1 -21
-15 -4 -8 9 -8 15 -2 15 6 0 14 -5 17 -11z m5305 -11 c0 -7 5 -7 13 -2 6 5 28
9 47 9 31 0 35 -4 38 -28 2 -16 -2 -34 -8 -42 -14 -16 -40 -9 -40 11 0 17 -51
19 -67 3 -8 -8 -11 0 -10 29 2 27 6 38 15 35 6 -3 12 -10 12 -15z m-450 -18
c0 -5 -4 -10 -10 -10 -5 0 -10 5 -10 10 0 6 5 10 10 10 6 0 10 -4 10 -10z
m610 -11 c0 -5 -4 -9 -10 -9 -5 0 -10 7 -10 16 0 8 5 12 10 9 6 -3 10 -10 10
-16z m-683 -11 c-3 -8 -6 -5 -6 6 -1 11 2 17 5 13 3 -3 4 -12 1 -19z m-4907 2
c0 -5 -5 -10 -11 -10 -5 0 -7 5 -4 10 3 6 8 10 11 10 2 0 4 -4 4 -10z m4730 0
c0 -5 -7 -10 -15 -10 -8 0 -15 -4 -15 -10 0 -5 -4 -10 -10 -10 -18 0 -10 17
13 28 28 14 27 14 27 2z m490 -6 c0 -9 5 -12 12 -8 7 4 8 3 4 -4 -4 -7 -14
-12 -22 -12 -8 0 -14 -4 -14 -10 0 -5 -4 -10 -10 -10 -5 0 -10 7 -10 15 0 8 5
15 10 15 6 0 10 7 10 15 0 8 5 15 10 15 6 0 10 -7 10 -16z m-4623 -24 c1 -11
-2 -20 -8 -20 -5 0 -9 9 -9 20 0 11 4 20 8 20 4 0 8 -9 9 -20z m4402 0 c-7 -5
-19 -6 -26 -3 -11 5 -12 8 -2 13 7 5 19 6 26 3 11 -5 12 -8 2 -13z m71 -11 c0
-10 -4 -19 -10 -19 -5 0 -10 12 -10 26 0 14 4 23 10 19 6 -3 10 -15 10 -26z
m-4906 -5 c4 -9 4 -19 2 -21 -8 -8 -26 8 -26 23 0 19 16 18 24 -2z m4766 -4
c0 -11 -4 -20 -9 -20 -5 0 -7 9 -4 20 3 11 7 20 9 20 2 0 4 -9 4 -20z m-476
-21 c-3 -5 -10 -7 -15 -3 -5 3 -7 10 -3 15 3 5 10 7 15 3 5 -3 7 -10 3 -15z
m336 6 c0 -9 6 -12 15 -9 8 4 15 1 15 -5 0 -6 -4 -11 -10 -11 -5 0 -16 -13
-25 -30 -18 -34 -35 -39 -35 -10 0 11 5 19 11 18 6 -2 14 3 16 10 3 6 -2 12
-11 12 -19 0 -21 11 -4 28 16 16 28 15 28 -3z m-170 -25 c0 -19 -13 -40 -25
-40 -9 0 -13 11 -13 29 1 22 5 27 19 24 11 -3 19 -9 19 -13z m700 8 c0 -4 -7
-8 -15 -8 -8 0 -15 4 -15 8 0 5 7 9 15 9 8 0 15 -4 15 -9z m-12 -33 c-8 -9
-58 9 -58 20 0 11 7 10 31 -2 16 -8 29 -16 27 -18z m159 -10 c-9 -7 -14 -15
-10 -18 3 -4 -15 -7 -40 -7 -44 0 -60 11 -37 25 6 3 10 0 10 -7 0 -8 3 -9 8
-3 4 6 19 16 35 24 15 8 27 19 27 25 0 6 6 2 12 -8 8 -15 7 -22 -5 -31z m-249
10 c3 -16 1 -18 -9 -7 -7 6 -21 12 -31 12 -10 0 -18 5 -18 11 0 20 55 5 58
-16z m-518 5 c0 -15 -28 -19 -45 -6 -16 11 -14 13 14 14 17 0 31 -3 31 -8z
m275 -9 c3 -5 1 -12 -5 -16 -5 -3 -10 1 -10 9 0 18 6 21 15 7z m175 -11 c9 0
16 -9 17 -20 2 -23 -7 -26 -25 -8 -17 17 -25 -12 -13 -44 5 -14 7 -29 4 -32
-12 -12 -33 17 -34 48 l-1 31 -8 -30 c-4 -16 -8 -25 -9 -20 -1 6 -6 3 -11 -5
-8 -12 -10 -11 -10 8 0 12 4 22 9 22 5 0 11 12 13 28 2 15 8 26 16 25 6 -2 12
2 12 9 0 9 3 9 12 0 7 -7 19 -12 28 -12z m-620 0 c0 -5 -5 -10 -11 -10 -5 0
-7 5 -4 10 3 6 8 10 11 10 2 0 4 -4 4 -10z m526 -17 c-10 -10 -19 5 -10 18 6
11 8 11 12 0 2 -7 1 -15 -2 -18z m269 17 c-3 -5 -2 -10 4 -10 6 0 8 -7 5 -15
-7 -16 -43 -11 -55 7 -3 5 -12 2 -19 -7 -7 -8 -20 -15 -28 -15 -13 0 -12 3 4
15 10 8 15 15 9 16 -8 2 9 6 78 18 5 0 5 -3 2 -9z m-440 -29 c-3 -6 -18 -11
-33 -10 l-27 1 30 13 c32 14 41 13 30 -4z m751 4 c-3 -8 -1 -15 4 -15 5 0 15
-13 23 -29 14 -28 14 -29 -14 -33 -16 -3 -31 0 -33 6 -3 6 -14 0 -25 -14 -12
-14 -31 -35 -43 -47 -13 -13 -20 -23 -16 -23 3 0 13 -3 22 -6 11 -4 16 -1 16
11 0 15 2 15 15 1 8 -8 15 -17 15 -19 0 -10 -56 -15 -66 -6 -8 6 -14 4 -18 -6
-3 -9 -11 -13 -17 -10 -7 5 -10 -1 -9 -16 3 -39 1 -51 -10 -44 -5 3 -10 -3
-10 -14 0 -25 -8 -26 -31 -6 -14 13 -15 20 -5 40 6 14 16 25 23 25 7 0 12 12
11 28 -1 15 2 34 6 43 5 12 0 14 -29 11 -40 -5 -43 -9 -18 -28 16 -11 15 -13
-11 -25 -25 -12 -29 -11 -39 6 -17 30 -16 66 2 73 11 4 8 9 -14 18 -19 8 -23
13 -12 14 10 0 17 8 17 20 0 11 4 20 10 20 5 0 7 -7 4 -15 -4 -9 0 -15 10 -15
9 0 16 -8 16 -20 0 -11 5 -20 10 -20 6 0 10 7 10 15 0 9 7 18 16 22 8 3 21 17
27 32 11 26 11 26 15 -12 2 -29 -1 -42 -15 -53 -17 -13 -17 -13 0 -14 10 0 20
-7 24 -15 5 -13 8 -13 20 5 13 18 17 19 31 8 9 -8 13 -8 9 -2 -4 7 0 14 8 18
8 3 15 15 15 26 0 11 5 20 11 20 5 0 7 5 3 12 -5 8 -2 9 9 5 12 -4 17 -1 17
12 0 17 8 31 18 31 2 0 2 -7 -2 -15z m-986 -5 c0 -5 -4 -10 -10 -10 -5 0 -10
5 -10 10 0 6 5 10 10 10 6 0 10 -4 10 -10z m33 -16 c-8 -21 -23 -17 -23 6 0
13 5 18 14 14 8 -3 12 -12 9 -20z m927 16 c0 -5 -4 -10 -9 -10 -6 0 -13 5 -16
10 -3 6 1 10 9 10 9 0 16 -4 16 -10z m-793 -6 c-3 -3 -12 -4 -19 -1 -8 3 -5 6
6 6 11 1 17 -2 13 -5z m113 -29 c0 -18 -5 -25 -20 -25 -22 0 -26 20 -8 38 19
19 28 14 28 -13z m385 16 c3 -5 1 -12 -5 -16 -5 -3 -10 1 -10 9 0 18 6 21 15
7z m-665 -22 c0 -5 -4 -9 -10 -9 -5 0 -10 -7 -10 -17 0 -22 -6 -14 -14 19 -5
23 -3 25 14 21 11 -3 20 -9 20 -14z m531 -12 c-13 -13 -26 -3 -16 12 3 6 11 8
17 5 6 -4 6 -10 -1 -17z m103 3 c5 -5 7 -12 5 -15 -8 -7 -79 17 -79 28 0 11
60 1 74 -13z m-269 0 c3 -5 -1 -10 -9 -10 -9 0 -16 5 -16 10 0 6 4 10 9 10 6
0 13 -4 16 -10z m-4013 -32 c-9 -9 -12 -7 -12 12 0 19 3 21 12 12 9 -9 9 -15
0 -24z m4722 23 c3 -5 -1 -11 -9 -15 -15 -6 -29 7 -18 18 9 9 21 8 27 -3z
m-883 -51 c5 0 9 -7 9 -15 0 -8 -4 -15 -10 -15 -5 0 -10 -7 -10 -15 0 -8 -5
-15 -11 -15 -5 0 -7 -4 -4 -10 3 -5 2 -10 -3 -10 -11 0 -24 41 -16 49 3 3 9
-1 14 -9 8 -12 10 -11 10 5 0 11 -4 27 -10 35 -6 9 -5 19 3 29 10 12 12 11 15
-7 2 -12 8 -22 13 -22z m33 25 c-22 -17 -34 -19 -34 -6 0 5 8 12 18 14 32 9
36 7 16 -8z m33 -22 c-3 -10 -5 -4 -5 12 0 17 2 24 5 18 2 -7 2 -21 0 -30z
m-4467 23 c0 -3 -4 -8 -10 -11 -5 -3 -10 -1 -10 4 0 6 5 11 10 11 6 0 10 -2
10 -4z m4310 -11 c0 -8 -7 -15 -16 -15 -14 0 -14 3 -4 15 7 8 14 15 16 15 2 0
4 -7 4 -15z m564 -37 c-3 -4 -11 -8 -18 -8 -20 0 -26 -36 -10 -57 8 -11 13
-13 14 -5 0 6 7 12 15 12 19 0 21 60 3 78 -9 9 -7 12 8 12 12 0 21 -6 22 -12
3 -35 9 -65 16 -76 4 -7 3 -12 -3 -12 -7 0 -7 -8 0 -27 5 -14 8 -36 7 -47 -2
-14 5 -24 19 -31 22 -9 33 -39 25 -64 -3 -8 -10 -1 -18 18 -14 32 -44 43 -44
15 0 -19 -25 -13 -26 7 0 8 -4 22 -8 32 -5 11 -4 28 2 42 12 25 7 35 -16 35
-9 0 -24 7 -34 16 -14 13 -21 14 -32 5 -10 -8 -16 -9 -21 -1 -9 15 3 30 20 24
10 -4 15 4 17 28 2 20 8 32 16 31 6 -2 12 7 12 20 l0 22 19 -25 c11 -13 17
-28 15 -32z m-696 14 c-5 -27 -28 -26 -28 2 0 19 4 24 15 19 9 -3 15 -12 13
-21z m615 22 c3 -4 -1 -13 -9 -22 -13 -13 -17 -13 -24 -2 -5 8 -6 18 -4 22 6
9 28 11 37 2z m390 -24 c-3 -11 -11 -20 -18 -20 -10 0 -11 5 -2 24 14 28 28
25 20 -4z m-646 14 c-3 -3 -12 -4 -19 -1 -8 3 -5 6 6 6 11 1 17 -2 13 -5z m63
-8 c25 -10 28 -14 16 -19 -17 -7 -56 11 -56 25 0 11 3 10 40 -6z m-66 -28 c-9
-31 -11 -33 -29 -18 -21 17 -19 28 8 33 12 2 23 5 25 6 2 0 0 -9 -4 -21z
m-410 -4 c3 -8 2 -12 -4 -9 -6 3 -10 10 -10 16 0 14 7 11 14 -7z m626 -18 c0
-2 -9 -2 -20 1 -22 6 -30 -22 -9 -29 7 -2 9 -13 4 -27 -9 -28 -17 -20 -22 21
-5 48 2 61 27 48 11 -6 20 -12 20 -14z m-550 -14 c0 -4 -5 -13 -12 -20 -8 -8
-8 -15 2 -27 17 -21 27 -19 34 8 l6 22 23 -26 c17 -21 27 -25 43 -19 12 5 24
13 27 17 3 5 22 7 41 5 27 -3 36 -9 36 -23 0 -10 5 -19 11 -19 6 0 9 8 6 19
-8 31 26 52 70 43 41 -8 49 -24 53 -97 2 -24 4 -31 7 -18 3 16 9 20 21 16 15
-6 14 -3 -2 15 -17 20 -17 22 -2 28 20 8 49 -15 38 -30 -9 -13 -8 -49 3 -88 5
-18 3 -28 -4 -28 -16 0 -14 -80 2 -81 10 0 10 -2 0 -6 -15 -5 -18 -33 -4 -33
5 0 9 -6 8 -12 -1 -36 4 -59 12 -54 16 10 18 -78 2 -114 -21 -51 -21 -59 0
-55 10 2 21 0 24 -6 4 -5 -3 -9 -14 -9 -18 0 -21 -7 -22 -42 0 -24 -3 -36 -6
-28 -2 8 -7 22 -9 30 -5 13 -7 12 -15 -2 -7 -12 -5 -29 6 -54 12 -29 19 -35
36 -31 16 4 18 3 9 -8 -6 -8 -18 -11 -26 -8 -11 4 -13 -2 -8 -26 4 -18 2 -31
-3 -31 -16 0 -24 -59 -11 -80 10 -15 9 -22 -5 -38 -10 -11 -15 -26 -12 -35 4
-8 2 -31 -3 -49 -7 -26 -6 -39 5 -54 12 -16 12 -20 0 -29 -9 -6 -12 -23 -9
-47 4 -35 7 -38 36 -38 22 0 27 -3 17 -9 -8 -5 -11 -16 -8 -25 8 -19 -13 -22
-31 -4 -19 19 -9 -50 11 -73 15 -17 14 -23 -5 -20 -5 0 -8 -6 -8 -14 0 -8 -4
-15 -10 -15 -5 0 -10 -13 -10 -30 0 -26 3 -30 29 -30 25 0 30 -5 39 -40 5 -22
6 -37 1 -34 -5 3 -9 12 -9 21 0 13 -3 13 -15 3 -12 -10 -15 -10 -15 4 0 24
-37 20 -45 -5 -4 -13 -1 -27 9 -38 10 -11 12 -21 6 -27 -5 -5 -12 -41 -15 -79
-4 -39 -8 -83 -9 -99 -4 -29 13 -86 26 -86 3 0 8 12 10 28 3 26 4 26 9 -6 4
-21 1 -39 -6 -46 -10 -10 -10 -16 1 -31 16 -22 19 -55 4 -55 -5 0 -10 7 -10
15 0 8 -6 15 -14 15 -18 0 -29 -45 -17 -68 12 -22 9 -45 -7 -65 -10 -12 -11
-39 -2 -67 1 -3 1 -27 0 -55 -2 -54 -21 -78 -55 -70 -17 4 -16 3 3 -6 12 -7
22 -16 22 -21 0 -12 -38 -10 -42 4 -3 7 -12 6 -30 -6 -14 -9 -30 -16 -34 -15
-27 5 -64 -3 -62 -12 3 -11 -77 -41 -86 -32 -2 2 -7 -5 -11 -16 -4 -12 -12
-18 -21 -14 -7 3 -14 0 -14 -6 0 -6 -6 -11 -14 -11 -8 0 -17 -7 -20 -16 -3 -8
-2 -12 4 -9 6 3 10 -1 10 -9 0 -9 -9 -16 -20 -16 -11 0 -20 -7 -20 -15 0 -8
-4 -15 -10 -15 -5 0 -10 -6 -10 -14 0 -8 -6 -16 -14 -19 -15 -6 -31 36 -21 53
4 6 2 10 -4 10 -12 0 -2 32 13 42 7 5 7 8 -1 8 -7 0 -13 7 -13 16 0 8 5 12 10
9 6 -3 10 -1 10 4 0 6 -7 11 -16 11 -8 0 -12 5 -9 10 4 6 11 8 16 5 5 -4 9 3
9 14 0 11 5 32 12 46 9 20 17 25 34 21 26 -7 90 30 99 57 4 9 11 15 16 12 5
-4 9 5 9 19 0 14 4 26 9 26 6 0 10 17 10 38 1 68 3 82 11 77 17 -10 20 14 4
29 -16 16 -16 37 0 161 3 22 7 83 10 136 3 53 10 109 16 125 7 16 13 46 16 68
2 21 8 43 13 50 14 17 18 205 5 210 -6 2 -14 40 -18 85 -7 86 -14 114 -26 106
-13 -8 -43 33 -36 50 4 12 -4 20 -30 31 -19 8 -40 12 -46 8 -5 -4 -14 0 -19 7
-6 10 -9 11 -9 2 0 -27 -30 -13 -31 15 0 15 -4 36 -8 47 -5 13 -3 28 7 44 16
23 15 23 -8 16 -25 -7 -25 -7 3 17 15 13 27 28 27 33 0 27 -22 85 -31 80 -5
-4 -9 -2 -9 4 0 5 5 11 11 13 6 2 12 31 14 63 1 33 6 68 10 77 4 10 5 41 2 70
-2 29 -1 60 3 68 4 8 10 30 14 49 5 27 3 32 -9 27 -8 -3 -15 -1 -15 4 0 6 5
10 11 10 6 0 3 7 -5 16 -18 18 -21 40 -6 49 6 3 10 15 10 26 0 11 5 17 10 14
13 -8 13 -8 -6 54 -14 50 -14 54 3 67 21 15 33 18 33 6z m400 -2 c0 -5 -5 -10
-11 -10 -5 0 -7 -4 -4 -10 3 -5 2 -10 -3 -10 -12 0 -23 26 -15 34 10 10 33 7
33 -4z m-310 -10 c0 -5 -5 -10 -11 -10 -5 0 -7 5 -4 10 3 6 8 10 11 10 2 0 4
-4 4 -10z m373 -38 c-4 -14 -3 -15 6 -2 13 18 23 9 25 -23 1 -19 4 -23 14 -15
9 8 12 5 12 -12 0 -16 -4 -20 -15 -16 -9 3 -15 0 -15 -9 0 -8 -5 -15 -11 -15
-5 0 -7 5 -4 10 4 6 -5 10 -19 10 -14 0 -26 5 -26 10 0 6 5 10 11 10 8 0 10
15 7 45 -5 37 -3 43 8 34 7 -6 10 -18 7 -27z m317 24 c0 -3 -4 -8 -10 -11 -5
-3 -10 -1 -10 4 0 6 5 11 10 11 6 0 10 -2 10 -4z m-840 -26 c0 -11 -4 -20 -10
-20 -5 0 -10 9 -10 20 0 11 5 20 10 20 6 0 10 -9 10 -20z m-4155 0 c3 -5 1
-10 -4 -10 -6 0 -11 5 -11 10 0 6 2 10 4 10 3 0 8 -4 11 -10z m4825 6 c0 -2
-7 -9 -15 -16 -12 -10 -15 -10 -15 4 0 9 7 16 15 16 8 0 15 -2 15 -4z m-60
-31 c0 -8 5 -15 12 -15 6 0 8 -3 5 -6 -8 -8 -37 14 -37 27 0 5 5 9 10 9 6 0
10 -7 10 -15z m371 -25 c25 0 24 -12 -1 -30 -11 -8 -20 -22 -20 -32 0 -21 -17
-32 -23 -16 -4 10 -8 9 -16 -2 -14 -21 4 -37 24 -20 18 15 27 8 32 -20 2 -11
-2 -19 -9 -17 -11 2 -13 -9 -10 -61 2 -20 5 -21 23 -12 27 15 29 12 20 -30 -5
-26 -9 -31 -14 -17 -3 9 -13 17 -22 17 -8 0 -15 4 -15 9 0 16 -29 20 -44 6
-12 -13 -15 -13 -20 0 -3 9 -12 12 -21 9 -12 -5 -13 -10 -6 -17 6 -6 11 -17
11 -25 0 -11 -3 -11 -15 2 -20 20 -19 39 5 56 27 19 25 40 -2 40 -22 1 -23 1
-4 15 11 8 16 15 10 16 -5 0 2 5 16 11 23 10 23 11 5 16 -11 2 -23 9 -27 16
-11 16 -10 46 2 46 6 0 10 -12 10 -26 0 -15 4 -23 11 -19 6 4 8 10 5 13 -3 3
0 12 7 20 9 12 9 16 0 19 -20 7 -15 19 9 20 12 1 26 -3 30 -10 5 -8 8 -5 8 9
0 23 13 41 18 25 2 -6 12 -11 23 -11z m-5101 0 c0 -5 -2 -10 -4 -10 -3 0 -8 5
-11 10 -3 6 -1 10 4 10 6 0 11 -4 11 -10z m5209 -71 c-15 -9 -29 -3 -29 13 0
5 7 7 16 4 10 -4 15 0 13 12 -3 31 4 38 8 8 3 -17 -1 -32 -8 -37z m-49 41 c0
-5 -7 -10 -15 -10 -8 0 -15 -9 -15 -21 0 -11 -4 -17 -10 -14 -16 10 -11 43 8
48 29 8 32 7 32 -3z m-1054 -27 c-10 -10 -19 5 -10 18 6 11 8 11 12 0 2 -7 1
-15 -2 -18z m682 5 c-2 -6 -10 -14 -16 -16 -7 -2 -10 2 -6 12 7 18 28 22 22 4z
m-93 -48 c11 10 18 9 30 -4 15 -15 23 -18 41 -15 4 0 10 -5 15 -12 6 -10 11
-7 18 11 l10 25 0 -26 c1 -46 -20 -74 -52 -71 -22 3 -26 6 -17 16 13 16 -2 30
-42 40 -22 5 -31 1 -44 -19 -9 -14 -14 -33 -12 -43 3 -12 -2 -24 -13 -31 -17
-10 -19 -8 -19 14 0 14 5 25 10 25 6 0 10 11 10 24 0 13 7 29 15 36 20 17 19
30 -2 30 -15 0 -14 2 3 14 17 13 20 12 27 -6 6 -16 10 -18 22 -8z m145 -22
c-1 -13 -8 -34 -16 -48 l-15 -25 5 25 c3 14 6 35 6 48 0 12 5 22 10 22 6 0 10
-10 10 -22z m347 -10 c-3 -8 -6 -5 -6 6 -1 11 2 17 5 13 3 -3 4 -12 1 -19z
m-252 2 c-3 -5 -10 -10 -16 -10 -5 0 -9 5 -9 10 0 6 7 10 16 10 8 0 12 -4 9
-10z m236 -17 c8 -9 9 -14 3 -10 -7 4 -15 0 -18 -8 -5 -13 -8 -13 -26 2 -19
16 -19 18 -3 25 27 10 29 9 44 -9z m-1111 -3 c0 -5 -4 -10 -10 -10 -5 0 -10 5
-10 10 0 6 5 10 10 10 6 0 10 -4 10 -10z m856 -35 c4 -8 11 -12 17 -8 6 3 7 1
3 -5 -4 -7 -14 -12 -22 -12 -8 0 -14 -5 -14 -11 0 -5 -4 -7 -10 -4 -5 3 -10
-1 -10 -9 0 -9 -4 -16 -10 -16 -5 0 -10 9 -10 20 0 11 5 20 10 20 6 0 10 9 10
20 0 23 28 27 36 5z m-849 -37 c-3 -7 -5 -2 -5 12 0 14 2 19 5 13 2 -7 2 -19
0 -25z m-3738 -15 c0 -25 -1 -26 -9 -8 -12 27 -12 35 0 35 6 0 10 -12 9 -27z
m4523 -27 c4 -6 6 -15 5 -21 -4 -10 23 -45 35 -45 5 0 8 18 8 39 0 25 5 41 15
45 14 5 19 -5 16 -31 -1 -7 3 -13 9 -13 18 0 11 -17 -10 -23 -11 -3 -20 -10
-20 -16 0 -6 9 -11 20 -11 11 0 20 -4 20 -10 0 -5 -5 -10 -10 -10 -7 0 -7 -6
0 -19 7 -14 6 -21 -3 -25 -9 -5 -9 -7 1 -12 6 -3 12 -12 12 -20 0 -8 5 -14 10
-14 6 0 10 -7 10 -15 0 -8 -4 -15 -10 -15 -5 0 -10 -12 -10 -26 l0 -26 -29 24
c-36 28 -50 54 -22 39 16 -9 18 -5 16 52 l-2 62 -44 2 c-24 1 -37 -1 -29 -5
13 -6 16 -26 11 -69 -2 -20 -41 -16 -41 5 0 9 -7 26 -15 36 -23 31 -19 54 10
54 32 0 32 0 37 37 2 26 0 30 -19 29 -13 0 -23 5 -23 13 0 16 40 8 52 -11z
m-4545 8 c-3 -3 -12 -4 -19 -1 -8 3 -5 6 6 6 11 1 17 -2 13 -5z m4413 -20 c0
-9 -5 -12 -12 -8 -8 5 -9 -5 -5 -39 5 -37 3 -50 -13 -69 -20 -23 -20 -23 -35
-3 -10 12 -12 21 -5 23 5 2 10 10 10 18 0 8 6 11 15 8 10 -4 15 0 15 15 0 12
-5 21 -11 21 -8 0 -8 5 1 15 7 8 9 15 5 15 -4 0 -2 7 5 15 14 17 30 11 30 -11z
m478 -4 c4 0 7 -16 7 -35 0 -25 -5 -37 -18 -41 -22 -7 -26 -4 -32 25 -3 15 1
21 15 21 15 0 19 6 16 28 -2 15 -1 21 1 15 2 -7 8 -13 11 -13z m-111 -15 c-3
-19 -2 -35 3 -35 5 0 7 -15 6 -32 -2 -24 -8 -33 -19 -32 -10 1 -17 -4 -17 -12
0 -17 -12 -18 -28 -2 -14 14 -16 68 -3 68 5 0 7 10 3 22 -3 14 -2 19 6 14 8
-5 12 2 12 18 0 20 5 26 21 26 19 0 21 -4 16 -35z m-120 -17 c-3 -8 -6 -5 -6
6 -1 11 2 17 5 13 3 -3 4 -12 1 -19z m-204 -13 c-7 -21 -13 -19 -13 6 0 11 4
18 10 14 5 -3 7 -12 3 -20z m-13 -29 c0 -3 -4 -8 -10 -11 -5 -3 -10 -1 -10 4
0 6 5 11 10 11 6 0 10 -2 10 -4z m510 -16 c0 -5 -4 -10 -10 -10 -5 0 -10 5
-10 10 0 6 5 10 10 10 6 0 10 -4 10 -10z m-5643 -32 c-3 -8 -6 -5 -6 6 -1 11
2 17 5 13 3 -3 4 -12 1 -19z m5466 -35 c-7 -2 -13 -9 -13 -15 0 -6 7 -8 15 -4
9 3 15 0 15 -10 0 -9 -7 -14 -17 -12 -10 1 -24 -1 -30 -5 -8 -5 -13 -4 -13 2
0 6 5 11 11 11 8 0 9 4 0 13 -13 17 -4 27 23 26 12 0 15 -3 9 -6z m-270 -20
c9 -5 -18 -33 -33 -33 -6 0 -8 5 -5 10 3 6 1 10 -4 10 -6 0 -11 -9 -11 -20 0
-11 -4 -20 -10 -20 -5 0 -10 11 -10 25 0 16 6 25 15 25 8 0 15 4 15 10 0 8 20
5 43 -7z m35 -30 c-4 -21 -19 -34 -31 -26 -5 3 -3 9 4 14 12 7 11 9 -1 10 -10
0 -8 3 5 9 11 5 21 9 23 9 2 1 2 -7 0 -16z m-158 -12 c0 -5 -7 -12 -16 -15
-14 -5 -15 -4 -4 9 14 17 20 19 20 6z m410 -6 c0 -8 6 -12 13 -10 6 3 17 -3
24 -14 10 -16 9 -22 -12 -35 -14 -9 -25 -24 -25 -32 0 -14 -3 -14 -15 -4 -13
11 -12 16 10 36 15 13 25 24 23 25 -21 6 -48 4 -48 -4 0 -5 -6 -4 -13 2 -8 6
-17 8 -20 4 -4 -3 -7 -1 -7 6 0 8 6 11 16 7 11 -4 18 1 21 14 6 23 33 27 33 5z
m-80 -25 c0 -5 -2 -10 -4 -10 -3 0 -8 5 -11 10 -3 6 -1 10 4 10 6 0 11 -4 11
-10z m-906 -8 c2 -4 -4 -8 -14 -8 -10 0 -16 4 -14 8 3 4 9 8 14 8 5 0 11 -4
14 -8z m546 -2 c8 -5 12 -11 9 -14 -3 -3 -14 1 -25 9 -21 16 -8 20 16 5z m98
-32 c3 -31 1 -32 -14 -17 -10 11 -14 24 -9 38 9 29 20 19 23 -21z m66 7 c17
-13 17 -16 4 -37 -18 -28 -13 -48 13 -48 10 0 19 -5 19 -11 0 -15 35 -7 36 9
1 6 2 17 3 22 0 6 12 10 26 10 21 0 25 -5 25 -32 0 -30 -1 -31 -15 -12 -13 17
-14 17 -15 2 0 -10 -7 -18 -16 -18 -13 0 -14 -3 -4 -15 10 -12 9 -16 -6 -22
-10 -4 -19 -2 -22 5 -2 7 -11 12 -19 12 -13 0 -13 -3 -3 -15 10 -13 10 -19 -5
-35 -9 -10 -14 -24 -10 -29 3 -6 -2 -11 -12 -11 -16 0 -18 6 -15 35 3 27 1 35
-12 35 -11 0 -16 9 -16 26 0 14 4 23 10 19 6 -4 10 16 10 54 0 38 -4 61 -12
64 -9 4 -8 6 2 6 8 0 24 -6 34 -14z m-4614 -5 c0 -5 -5 -10 -11 -10 -5 0 -7 5
-4 10 3 6 8 10 11 10 2 0 4 -4 4 -10z m4695 -20 c3 -5 1 -10 -4 -10 -6 0 -11
5 -11 10 0 6 2 10 4 10 3 0 8 -4 11 -10z m135 1 c0 -5 8 -12 18 -14 10 -3 6
-5 -10 -6 -16 0 -28 -5 -28 -11 0 -5 -9 -10 -20 -10 -11 0 -20 5 -20 10 0 6
-10 10 -22 11 -14 0 -5 6 22 13 59 17 60 18 60 7z m130 -1 c0 -5 -5 -10 -11
-10 -5 0 -7 5 -4 10 3 6 8 10 11 10 2 0 4 -4 4 -10z m-455 -88 c-2 -7 2 -15
10 -18 24 -9 17 -24 -10 -24 -16 0 -25 -6 -25 -15 0 -8 -5 -15 -11 -15 -5 0
-2 14 8 30 14 25 15 34 5 50 -17 28 -15 32 8 18 11 -7 18 -19 15 -26z m455 23
c0 -8 5 -15 11 -15 6 0 9 -9 6 -20 -3 -11 -1 -20 3 -20 4 0 8 -16 7 -36 -1
-28 -5 -34 -18 -31 -12 3 -15 0 -11 -15 2 -10 9 -17 15 -15 15 5 67 -56 67
-78 0 -15 -19 -1 -30 23 l-12 27 -9 -24 c-7 -18 -5 -27 8 -37 20 -15 21 -15
-29 -18 -34 -2 -38 0 -38 22 0 15 4 21 12 16 7 -4 8 -3 4 4 -11 19 -22 14 -35
-15 -8 -18 -9 -29 -1 -37 5 -5 10 -17 10 -25 -1 -14 -3 -13 -14 2 -14 18 -36
23 -36 8 0 -6 4 -12 9 -15 5 -3 5 -25 0 -48 -12 -62 -11 -71 6 -64 20 7 21
-40 1 -51 -7 -4 -16 -15 -19 -23 -4 -13 -6 -12 -6 1 -1 10 -12 19 -27 22 -19
3 -24 1 -20 -10 3 -8 6 -19 6 -24 0 -6 4 -8 9 -4 17 10 21 -12 6 -25 -8 -7
-15 -21 -15 -30 0 -10 -4 -20 -9 -22 -13 -4 -18 -53 -6 -51 6 1 9 -15 6 -40
-3 -36 -5 -39 -12 -19 -10 26 -21 29 -18 5 3 -39 -1 -52 -16 -47 -17 7 -21 34
-4 34 6 0 8 9 3 22 -4 13 -8 42 -10 66 -3 41 -1 44 21 38 21 -5 23 -3 23 29 0
24 -8 43 -29 65 -16 16 -24 30 -18 30 6 0 17 7 26 15 12 12 18 13 29 4 11 -9
14 -8 14 3 0 7 -10 14 -21 15 -12 1 -23 4 -26 7 -12 12 1 122 16 140 6 8 8 22
4 31 -4 12 -3 16 4 12 12 -8 23 -87 12 -87 -4 0 -9 -14 -11 -30 -5 -33 9 -51
22 -29 7 10 11 10 24 -1 22 -18 29 -8 17 24 -7 16 -7 35 -1 50 12 32 -1 43
-17 14 -11 -21 -12 -22 -13 -3 0 11 9 26 20 33 12 7 20 23 20 38 0 17 4 23 12
18 8 -5 9 -2 5 9 -4 10 -2 28 3 42 8 20 6 25 -6 25 -8 0 -14 -6 -13 -12 3 -24
-1 -38 -11 -38 -5 0 -10 14 -10 30 0 27 3 30 30 30 17 0 30 -4 30 -10 0 -5 5
-10 11 -10 7 0 9 10 5 25 -4 14 -2 25 4 25 5 0 9 8 8 18 -3 38 3 72 12 72 6 0
10 -7 10 -15z m-510 -42 c0 -38 -9 -41 -35 -13 -21 24 -15 46 14 46 17 0 21
-6 21 -33z m453 11 c-4 -12 -8 -13 -14 -3 -9 15 -2 32 11 24 5 -3 6 -13 3 -21z
m-83 -9 c0 -8 4 -15 9 -15 5 0 11 -9 14 -20 4 -15 0 -20 -13 -20 -23 0 -39 26
-33 51 6 23 23 25 23 4z m-47 -25 c-3 -12 -8 -19 -11 -16 -5 6 5 36 12 36 2 0
2 -9 -1 -20z m272 10 c-3 -5 -11 -10 -16 -10 -6 0 -7 5 -4 10 3 6 11 10 16 10
6 0 7 -4 4 -10z m-38 -22 c-3 -8 -6 -5 -6 6 -1 11 2 17 5 13 3 -3 4 -12 1 -19z
m-1112 -8 c-3 -5 -11 -10 -16 -10 -6 0 -7 5 -4 10 3 6 11 10 16 10 6 0 7 -4 4
-10z m635 -7 c0 -2 -6 -11 -14 -19 -20 -19 -40 -18 -32 2 3 9 6 19 6 24 0 4 9
6 20 3 11 -3 20 -7 20 -10z m-4290 -23 c0 -5 -5 -10 -11 -10 -5 0 -7 5 -4 10
3 6 8 10 11 10 2 0 4 -4 4 -10z m4487 -10 c11 -16 10 -18 -3 -13 -12 4 -15 1
-12 -13 2 -10 10 -19 18 -19 17 0 25 -28 15 -53 -6 -14 -8 -13 -17 8 -7 20
-11 22 -18 10 -8 -13 -10 -12 -10 3 0 9 -5 17 -11 17 -7 0 -9 -10 -5 -25 4
-14 2 -25 -4 -25 -16 0 -12 70 5 76 8 4 15 17 15 30 0 29 11 31 27 4z m-4490
-27 c2 -6 -3 -13 -12 -16 -10 -5 -15 0 -15 14 0 21 21 22 27 2z m3783 7 c0 -5
-5 -10 -11 -10 -5 0 -7 5 -4 10 3 6 8 10 11 10 2 0 4 -4 4 -10z m498 -6 c12
-4 22 -13 22 -20 0 -8 9 -14 20 -14 12 0 20 -7 20 -17 0 -11 -3 -14 -8 -8 -11
16 -72 19 -72 3 0 -10 -3 -9 -10 2 -6 9 -5 17 3 22 8 5 6 9 -6 14 -9 3 -17 10
-17 15 0 10 16 11 48 3z m116 -15 c-3 -6 -1 -15 6 -19 7 -4 11 -12 9 -18 -3
-7 -11 -6 -23 3 -19 14 -16 45 4 45 6 0 8 -5 4 -11z m-5154 -29 c0 -5 -7 -7
-15 -4 -8 4 -15 8 -15 10 0 2 7 4 15 4 8 0 15 -4 15 -10z m4977 -25 c0 -8 -4
-15 -9 -15 -10 0 -11 14 -1 23 9 10 10 9 10 -8z m63 -15 c0 -5 -5 -10 -11 -10
-5 0 -7 5 -4 10 3 6 8 10 11 10 2 0 4 -4 4 -10z m190 -71 c-9 -16 -14 -18 -25
-9 -12 10 -12 14 0 27 8 8 15 26 16 41 1 26 1 25 10 -6 7 -21 6 -39 -1 -53z
m-89 52 c13 -10 14 -18 5 -36 l-10 -22 -16 21 c-27 35 -32 57 -13 54 10 -2 25
-9 34 -17z m39 9 c0 -5 -5 -10 -11 -10 -5 0 -7 5 -4 10 3 6 8 10 11 10 2 0 4
-4 4 -10z m-206 -42 c-4 -6 2 -8 15 -3 18 5 21 2 21 -20 0 -17 -4 -24 -12 -19
-7 4 -8 3 -4 -5 4 -7 15 -11 24 -9 10 1 23 -1 30 -5 6 -5 12 -4 12 1 0 6 15
10 34 10 19 0 39 3 45 7 6 3 11 0 11 -7 1 -9 5 -7 14 5 16 21 26 22 26 3 0
-16 37 -18 58 -3 9 7 12 3 12 -12 0 -18 -4 -21 -21 -16 -28 9 -72 -3 -63 -17
5 -8 0 -9 -16 -5 -20 5 -22 3 -17 -23 5 -24 3 -28 -12 -27 -10 0 -24 9 -30 19
-9 15 -8 18 9 18 18 0 19 3 8 20 -16 25 -40 30 -55 10 -8 -10 -12 -11 -13 -2
0 17 -37 15 -48 -3 -15 -28 -39 -7 -39 33 0 21 -4 49 -8 62 -7 22 -6 23 8 11
9 -7 14 -18 11 -23z m-70 -65 c-10 -40 -14 -41 -14 -5 0 18 5 32 10 32 6 0 8
-11 4 -27z m-4534 2 c-7 -9 -15 -13 -19 -10 -3 3 1 10 9 15 21 14 24 12 10 -5z
m4553 -10 c-3 -9 -8 -14 -10 -11 -3 3 -2 9 2 15 9 16 15 13 8 -4z m327 -29 c0
-3 -4 -8 -10 -11 -5 -3 -10 -1 -10 4 0 6 5 11 10 11 6 0 10 -2 10 -4z m-246
-15 c3 -5 -1 -14 -8 -20 -12 -10 -13 -8 -9 8 6 23 9 25 17 12z m191 -17 c22
-3 24 -6 27 -34 2 -12 -3 -25 -9 -27 -8 -3 -13 4 -13 16 0 12 -4 21 -10 21 -5
0 -10 -7 -10 -16 0 -9 -6 -14 -12 -11 -7 2 -13 9 -12 15 1 7 2 24 3 40 1 20 4
23 10 13 5 -8 17 -16 26 -17z m-235 2 c0 -22 -16 -28 -29 -12 -9 11 -9 15 1
19 22 9 28 8 28 -7z m150 -46 c0 -12 -27 -12 -55 0 -16 7 -13 9 18 9 20 1 37
-3 37 -9z m-203 -32 c-3 -7 -5 -2 -5 12 0 14 2 19 5 13 2 -7 2 -19 0 -25z
m117 -25 c-19 -19 -25 -14 -17 15 4 18 8 20 19 11 11 -9 11 -14 -2 -26z m447
24 c-1 -12 -15 -9 -19 4 -3 6 1 10 8 8 6 -3 11 -8 11 -12z m-331 -47 c0 -13
-5 -18 -15 -14 -8 4 -15 12 -15 20 0 8 7 14 15 14 8 0 15 -9 15 -20z m100 -6
c0 -8 -4 -12 -10 -9 -5 3 -10 10 -10 16 0 5 5 9 10 9 6 0 10 -7 10 -16z m174
-15 c4 6 12 9 17 6 13 -9 11 -52 -3 -61 -6 -4 -8 -3 -5 3 8 12 -17 36 -26 26
-4 -3 -7 5 -7 18 0 17 3 20 9 10 6 -9 11 -10 15 -2z m-309 -50 c-5 -33 -3 -49
4 -49 6 0 11 -6 11 -14 0 -8 6 -17 13 -20 6 -3 2 -3 -10 0 -17 4 -23 1 -23
-10 0 -9 5 -16 10 -16 6 0 9 -12 9 -27 -1 -17 -3 -21 -6 -10 -2 9 -11 17 -19
17 -15 0 -20 35 -5 44 10 7 2 97 -10 111 -14 14 -11 21 12 22 19 2 20 -2 14
-48z m-95 29 c0 -7 -5 -20 -10 -28 -8 -13 -10 -12 -10 3 0 10 -4 15 -10 12 -5
-3 -10 1 -10 9 0 9 9 16 20 16 11 0 20 -6 20 -12z m47 -15 c2 -6 -5 -13 -15
-15 -15 -4 -18 -1 -14 14 5 19 23 20 29 1z m160 -30 c3 9 14 17 25 17 14 0 18
-5 14 -16 -3 -9 -6 -25 -6 -37 0 -17 -6 -22 -27 -24 -25 -1 -26 0 -10 12 17
12 23 26 10 23 -11 -2 -63 20 -63 27 0 3 8 13 18 23 16 17 17 16 26 -13 7 -22
10 -25 13 -12z m240 25 c-3 -8 -6 -5 -6 6 -1 11 2 17 5 13 3 -3 4 -12 1 -19z
m-17 -38 c0 -5 -5 -10 -11 -10 -5 0 -7 5 -4 10 3 6 8 10 11 10 2 0 4 -4 4 -10z
m143 3 c-7 -2 -19 -2 -25 0 -7 3 -2 5 12 5 14 0 19 -2 13 -5z m-626 -27 c-3
-7 0 -19 6 -26 9 -10 9 -12 -2 -8 -8 2 -18 14 -22 26 -6 17 -5 22 7 22 10 0
14 -6 11 -14z m478 -16 c3 -5 1 -10 -4 -10 -6 0 -11 5 -11 10 0 6 2 10 4 10 3
0 8 -4 11 -10z m42 -22 c-3 -7 -5 -2 -5 12 0 14 2 19 5 13 2 -7 2 -19 0 -25z
m-289 -15 c2 -7 -3 -13 -12 -13 -9 0 -16 -8 -17 -17 0 -15 -2 -15 -8 2 -5 11
-6 26 -3 33 6 16 34 12 40 -5z m258 5 c5 4 -4 -7 -19 -24 -21 -23 -25 -34 -16
-39 8 -6 10 -4 4 5 -5 8 -4 11 2 7 6 -4 13 -15 16 -26 4 -15 -2 -20 -29 -26
-34 -6 -43 -18 -24 -30 6 -3 10 -13 10 -21 0 -8 -4 -14 -10 -14 -5 0 -10 6
-10 14 0 8 -7 16 -15 20 -21 7 -19 18 7 46 12 13 23 31 25 39 1 9 6 17 11 19
6 2 7 12 4 24 -4 18 -2 19 15 9 11 -5 24 -7 29 -3z m-446 -53 c-9 -10 -7 -15
9 -20 27 -8 27 -41 1 -48 -15 -4 -19 0 -17 17 1 14 -3 20 -14 18 -9 -1 -22 5
-29 13 -10 13 -9 15 11 16 22 0 22 1 4 8 -19 8 -19 8 1 19 12 6 24 8 28 5 3
-3 7 0 7 8 1 8 3 7 6 -4 3 -10 0 -24 -7 -32z m-135 2 c0 -26 -18 -25 -22 1 -2
16 1 22 9 20 7 -3 13 -12 13 -21z m422 -22 c-19 -19 -54 -20 -54 -1 0 8 8 11
19 8 10 -2 18 1 18 7 0 7 5 9 10 6 6 -3 10 0 11 7 0 10 2 10 6 1 2 -7 -2 -20
-10 -28z m193 -12 c-11 -17 -11 -17 -6 0 3 10 6 24 7 30 0 9 2 9 5 0 3 -7 0
-20 -6 -30z m-260 -1 c0 -5 -10 -17 -22 -28 -20 -18 -21 -18 -15 -1 4 10 7 23
7 28 0 5 7 9 15 9 8 0 15 -4 15 -8z m-280 -22 c0 -5 -5 -10 -11 -10 -5 0 -7 5
-4 10 3 6 8 10 11 10 2 0 4 -4 4 -10z m230 -6 c0 -8 -4 -12 -10 -9 -5 3 -10
10 -10 16 0 5 5 9 10 9 6 0 10 -7 10 -16z m-104 -31 c-6 -15 -9 -15 -16 -3 -6
9 -5 17 3 22 16 10 21 2 13 -19z m-43 9 c-6 -4 -14 -27 -17 -51 -5 -51 -15
-64 -23 -33 -3 12 -12 22 -19 22 -8 0 -14 7 -14 15 0 8 7 15 15 15 8 0 15 6
15 14 0 15 14 24 40 25 10 0 11 -2 3 -7z m136 -15 c-2 -2 -26 -16 -53 -31 -35
-19 -53 -23 -60 -16 -14 14 10 30 47 30 15 0 27 4 27 9 0 5 8 11 18 13 17 4
29 1 21 -5z m261 3 c0 -5 -5 -10 -11 -10 -5 0 -7 5 -4 10 3 6 8 10 11 10 2 0
4 -4 4 -10z m-180 -19 c0 -5 -14 -16 -31 -25 -28 -14 -30 -14 -25 0 3 9 6 20
6 25 0 5 11 9 25 9 14 0 25 -4 25 -9z m244 -7 c3 -9 -4 -34 -16 -55 l-22 -39
-20 31 c-13 22 -21 28 -24 18 -3 -8 -16 -24 -29 -36 -12 -12 -23 -27 -23 -34
0 -9 -4 -9 -14 1 -18 14 -9 41 12 38 10 -2 18 8 24 29 10 37 25 50 41 34 17
-17 35 -13 42 9 8 24 21 26 29 4z m-147 -26 c-3 -8 -6 -5 -6 6 -1 11 2 17 5
13 3 -3 4 -12 1 -19z m-177 -64 c0 -8 -5 -12 -10 -9 -6 4 -8 11 -5 16 9 14 15
11 15 -7z m77 -26 c-3 -8 -6 -5 -6 6 -1 11 2 17 5 13 3 -3 4 -12 1 -19z m168
1 c10 -14 1 -21 -19 -13 -9 3 -13 10 -10 15 7 12 21 11 29 -2z m-449 -23 c-4
-15 -1 -26 7 -29 7 -3 5 -6 -5 -6 -10 -1 -18 2 -18 7 0 4 -3 17 -6 30 -5 16
-2 22 11 22 13 0 16 -6 11 -24z m204 14 c0 -5 -2 -10 -4 -10 -3 0 -8 5 -11 10
-3 6 -1 10 4 10 6 0 11 -4 11 -10z m80 -19 c0 -5 3 -16 6 -24 3 -8 -2 -17 -11
-21 -26 -10 -34 2 -22 29 12 25 27 34 27 16z m123 -28 c3 -15 1 -36 -4 -46 -6
-9 -7 -22 -4 -27 3 -6 1 -10 -4 -10 -6 0 -11 10 -11 23 0 12 -4 29 -9 36 -10
16 3 51 18 51 5 0 11 -12 14 -27z m-303 -35 c0 -10 -4 -18 -10 -18 -5 0 -10 8
-10 18 0 10 -3 13 -8 6 -5 -8 -16 -7 -37 2 l-30 13 38 1 c23 0 37 5 37 13 0
19 20 -15 20 -35z m111 29 c-1 -4 -1 -14 -1 -22 0 -8 -4 -15 -10 -15 -5 0 -10
12 -10 26 0 14 5 24 11 22 6 -2 10 -7 10 -11z m413 5 c2 -4 1 -14 -3 -21 -6
-9 -10 -7 -14 8 -5 20 7 29 17 13z m-167 -24 c-3 -8 -6 -5 -6 6 -1 11 2 17 5
13 3 -3 4 -12 1 -19z m-491 -5 c-2 -10 -10 -19 -19 -21 -19 -4 -20 -1 -11 22
8 22 33 20 30 -1z m57 -63 l-6 -60 28 0 c18 0 28 -6 32 -20 6 -21 28 -27 38
-10 7 12 45 14 44 3 0 -5 -4 -17 -9 -28 -7 -18 -9 -18 -15 -3 -8 20 -35 13
-35 -10 0 -13 -3 -12 -20 3 -11 10 -20 24 -20 32 0 8 -6 13 -12 12 -49 -6 -53
-1 -51 57 2 62 8 84 22 84 5 0 7 -26 4 -60z m144 -2 c-2 -33 -7 -53 -16 -56
-9 -3 -11 0 -6 8 4 7 -2 18 -14 27 -15 10 -19 18 -12 26 5 7 9 16 9 22 0 5 9
12 19 16 10 4 19 8 20 8 1 1 1 -22 0 -51z m193 42 c0 -5 -4 -10 -9 -10 -5 0
-18 -3 -28 -6 -16 -6 -16 -5 2 9 23 19 35 21 35 7z m144 -37 c-2 -42 -3 -43
-20 -36 -11 4 -12 9 -5 16 6 6 11 19 11 29 0 10 4 18 8 18 4 0 7 -12 6 -27z
m-214 1 c0 -8 -4 -12 -10 -9 -5 3 -10 10 -10 16 0 5 5 9 10 9 6 0 10 -7 10
-16z m340 -25 c0 -5 -5 -9 -11 -9 -6 0 -26 -7 -45 -16 -19 -9 -38 -14 -41 -10
-3 3 1 6 10 6 10 0 17 7 17 16 0 8 5 12 10 9 6 -3 10 -2 10 4 0 10 30 20 43
14 4 -2 7 -8 7 -14z m-270 7 c0 -3 -4 -8 -10 -11 -5 -3 -10 -1 -10 4 0 6 5 11
10 11 6 0 10 -2 10 -4z m90 -16 c0 -11 -4 -20 -8 -20 -4 0 -8 9 -9 20 -1 11 2
20 8 20 5 0 9 -9 9 -20z m-158 -12 c-7 -7 -12 -8 -12 -2 0 14 12 26 19 19 2
-3 -1 -11 -7 -17z m35 -10 c-3 -8 -6 -5 -6 6 -1 11 2 17 5 13 3 -3 4 -12 1
-19z m52 5 c0 -11 -3 -13 -6 -5 -2 6 -10 9 -15 6 -7 -4 -8 -2 -4 4 11 18 26
14 25 -5z m109 -26 c2 -15 -2 -27 -8 -27 -6 0 -9 -8 -6 -18 4 -12 -1 -26 -14
-37 -25 -23 -27 -4 -4 40 8 16 12 40 9 53 -4 17 -2 23 7 20 7 -3 14 -17 16
-31z m-173 -17 c14 -27 21 -70 11 -70 -17 0 -36 15 -36 29 0 14 -2 14 -10 1
-6 -9 -10 -10 -10 -3 0 6 5 15 10 18 6 4 7 11 4 17 -4 7 -2 8 4 4 7 -4 12 -2
12 3 0 6 -4 11 -10 11 -5 0 -10 5 -10 10 0 20 20 9 35 -20z m248 6 c9 0 17 -5
17 -11 0 -6 -16 -9 -40 -7 -27 3 -40 9 -40 19 0 10 6 12 23 7 12 -4 30 -8 40
-8z m-563 -10 c0 -3 -4 -8 -10 -11 -5 -3 -10 -1 -10 4 0 6 5 11 10 11 6 0 10
-2 10 -4z m230 0 c0 -3 -4 -8 -10 -11 -5 -3 -10 -1 -10 4 0 6 5 11 10 11 6 0
10 -2 10 -4z m-42 -47 c-16 -10 -33 5 -23 21 5 8 11 8 21 -1 12 -10 12 -14 2
-20z m405 6 c-3 -9 -8 -14 -10 -11 -3 3 -2 9 2 15 9 16 15 13 8 -4z m-55 -23
c3 -18 7 -20 28 -12 27 11 29 8 12 -23 -23 -44 -66 -57 -53 -17 4 12 -2 27
-14 39 -27 27 -27 42 2 37 13 -2 23 -11 25 -24z m-291 3 c8 -21 2 -24 -25 -14
-13 5 -20 13 -17 19 9 15 35 12 42 -5z m-335 -40 c-6 -32 -20 -32 -18 0 0 14
6 25 12 25 7 0 9 -10 6 -25z m98 15 c0 -5 -4 -10 -9 -10 -6 0 -13 5 -16 10 -3
6 1 10 9 10 9 0 16 -4 16 -10z m50 -22 c0 -10 -5 -18 -11 -18 -6 0 -9 -7 -5
-15 3 -8 1 -15 -4 -15 -6 0 -10 15 -10 33 0 23 5 34 15 34 8 0 15 -9 15 -19z
m190 -7 c0 -3 -9 -12 -20 -19 -18 -11 -20 -10 -20 12 0 19 4 23 20 19 11 -3
20 -8 20 -12z m110 14 c0 -2 -3 -11 -6 -19 -5 -13 -9 -14 -20 -5 -19 16 -17
24 6 26 11 1 20 0 20 -2z m-86 -42 c-1 -21 -2 -44 -3 -50 -1 -7 -6 -13 -12
-13 -6 0 -9 9 -6 20 4 14 0 20 -11 21 -11 0 -12 2 -4 6 6 2 12 10 12 17 0 9
19 36 25 36 1 0 1 -17 -1 -37z m32 0 c-10 -10 -19 5 -10 18 6 11 8 11 12 0 2
-7 1 -15 -2 -18z m191 -10 c-3 -10 -5 -4 -5 12 0 17 2 24 5 18 2 -7 2 -21 0
-30z m-110 -5 c-3 -7 -5 -2 -5 12 0 14 2 19 5 13 2 -7 2 -19 0 -25z m-367 12
c0 -13 -11 -13 -30 0 -12 8 -11 10 8 10 12 0 22 -4 22 -10z m330 -20 c0 -5 -2
-10 -4 -10 -3 0 -8 5 -11 10 -3 6 -1 10 4 10 6 0 11 -4 11 -10z m210 -10 c0
-5 -5 -10 -11 -10 -5 0 -7 5 -4 10 3 6 8 10 11 10 2 0 4 -4 4 -10z m-30 -27
c-1 -27 -1 -27 -15 -9 -19 25 -19 36 0 36 10 0 15 -10 15 -27z m-1250 13 c0
-2 -7 -6 -15 -10 -8 -3 -15 -1 -15 4 0 6 7 10 15 10 8 0 15 -2 15 -4z m1048
-19 c6 0 12 -6 12 -13 0 -8 -6 -11 -15 -8 -11 5 -15 -1 -15 -20 0 -14 -5 -26
-11 -26 -8 0 -8 -4 0 -14 12 -14 5 -46 -9 -46 -20 0 -28 84 -10 95 6 4 8 16 4
27 -5 18 -3 20 12 13 11 -4 25 -8 32 -8z m52 3 c0 -5 -4 -10 -10 -10 -5 0 -10
5 -10 10 0 6 5 10 10 10 6 0 10 -4 10 -10z m90 -19 c0 -17 -18 -21 -24 -6 -3
9 0 15 9 15 8 0 15 -4 15 -9z m-1210 -17 c0 -8 -5 -12 -10 -9 -6 4 -8 11 -5
16 9 14 15 11 15 -7z m1240 -5 c0 -5 -4 -9 -10 -9 -5 0 -10 7 -10 16 0 8 5 12
10 9 6 -3 10 -10 10 -16z m-1182 -4 c-4 -11 -28 -16 -28 -6 0 12 13 22 23 18
5 -1 7 -7 5 -12z m-41 -27 c-3 -7 -5 -2 -5 12 0 14 2 19 5 13 2 -7 2 -19 0
-25z m849 -4 c-4 -9 -9 -15 -11 -12 -3 3 -3 13 1 22 4 9 9 15 11 12 3 -3 3
-13 -1 -22z m361 -4 c-3 -11 -1 -23 4 -26 15 -9 10 -27 -5 -21 -10 4 -16 -2
-19 -16 -2 -12 -5 -1 -6 24 0 25 2 49 6 52 13 14 25 6 20 -13z m-330 -32 c-3
-7 -5 -2 -5 12 0 14 2 19 5 13 2 -7 2 -19 0 -25z m68 22 c-3 -5 -14 -10 -23
-10 -15 0 -15 2 -2 10 20 13 33 13 25 0z m152 -20 c1 -11 -4 -20 -13 -20 -16
0 -16 2 -8 24 8 22 19 20 21 -4z m193 0 c13 -9 13 -11 0 -19 -10 -7 -17 -6
-22 2 -17 26 -5 35 22 17z m-1199 -47 c13 -16 12 -17 -3 -4 -17 13 -22 21 -14
21 2 0 10 -8 17 -17z m857 -1 c3 -9 -3 -13 -19 -10 -12 1 -24 9 -27 16 -3 9 3
13 19 10 12 -1 24 -9 27 -16z m59 -38 c-3 -3 -12 -4 -19 -1 -8 3 -5 6 6 6 11
1 17 -2 13 -5z m122 -23 c-15 -5 -22 6 -14 19 6 9 10 9 16 -1 5 -8 4 -15 -2
-18z m108 -72 c6 -29 5 -31 -18 -24 -32 10 -48 25 -27 25 22 0 33 19 19 33 -6
6 -11 15 -11 20 0 20 31 -25 37 -54z m84 11 c21 0 27 -26 7 -27 -7 0 -20 -4
-29 -7 -12 -6 -14 0 -10 31 3 21 6 30 9 21 2 -10 12 -18 23 -18z m-29 -102
c-6 -6 -18 -8 -27 -4 -15 5 -14 9 6 25 21 17 25 17 27 4 2 -8 -1 -20 -6 -25z
m-172 -13 c0 -28 -15 -33 -24 -8 -4 9 -1 20 6 25 18 11 18 11 18 -17z m104
-15 c2 -14 8 -40 12 -57 4 -22 3 -33 -4 -33 -6 0 -9 6 -6 13 2 7 -5 22 -16 34
-20 22 -27 63 -13 77 10 9 21 -5 27 -34z m-4017 -99 c19 -29 30 -56 27 -65 -4
-10 -1 -16 8 -16 7 0 15 -11 16 -24 1 -14 13 -36 27 -50 14 -14 25 -33 25 -42
0 -10 3 -14 6 -11 9 9 44 -37 44 -58 0 -9 4 -14 9 -11 5 4 24 -6 41 -21 30
-25 32 -30 27 -76 -4 -27 -11 -55 -18 -63 -6 -8 -8 -26 -4 -44 4 -18 2 -36 -5
-44 -14 -18 -3 -114 16 -133 8 -8 14 -21 14 -28 0 -18 -49 -67 -60 -60 -5 3
-11 1 -15 -5 -4 -6 -11 -8 -16 -5 -5 4 -9 2 -9 -3 0 -19 -45 -22 -57 -5 -12
16 -13 16 -13 0 0 -9 -7 -17 -16 -17 -20 0 -99 -54 -118 -81 -16 -24 -50 -19
-65 10 -6 10 -9 99 -7 200 1 100 -1 184 -6 187 -5 3 -5 11 0 17 5 7 10 86 11
177 1 91 3 179 5 195 1 17 4 54 4 83 2 44 5 54 24 61 32 12 69 -11 105 -68z
m4136 -44 c7 -19 -20 -50 -38 -44 -21 9 -19 44 3 50 28 8 30 7 35 -6z m-78
-96 c3 -5 1 -12 -5 -16 -5 -3 -10 1 -10 9 0 18 6 21 15 7z m55 -28 c0 -12 -2
-12 -15 1 -8 8 -15 17 -15 20 0 3 7 3 15 0 8 -4 15 -13 15 -21z m-1194 -557
c3 -8 1 -23 -5 -33 -6 -11 -11 -13 -11 -5 0 7 -4 10 -10 7 -11 -7 -14 28 -3
38 11 11 23 8 29 -7z m140 -151 c3 -8 14 -17 24 -20 10 -3 23 -19 30 -35 8
-18 20 -30 31 -30 11 0 19 -5 19 -11 0 -5 4 -8 10 -4 12 7 30 -57 19 -69 -12
-14 -42 2 -35 19 4 13 2 13 -14 5 -15 -8 -20 -8 -20 1 0 6 -6 9 -14 6 -21 -8
-28 4 -9 18 11 8 14 19 9 31 -6 16 -9 16 -17 4 -7 -13 -10 -13 -18 -1 -5 7
-13 11 -19 7 -11 -6 -81 33 -82 47 0 4 7 7 15 7 8 0 15 5 15 11 0 5 5 7 10 4
6 -3 13 1 16 9 8 20 23 21 30 1z"/>
<path d="M4780 6471 c0 -6 5 -13 10 -16 6 -3 10 1 10 9 0 9 -4 16 -10 16 -5 0
-10 -4 -10 -9z"/>
<path d="M5890 6460 c0 -5 5 -10 11 -10 5 0 7 5 4 10 -3 6 -8 10 -11 10 -2 0
-4 -4 -4 -10z"/>
<path d="M4833 5708 c4 -12 7 -30 7 -38 1 -11 4 -10 15 4 19 26 19 29 -6 45
-20 12 -21 11 -16 -11z"/>
<path d="M4955 5690 c-3 -5 1 -10 10 -10 9 0 13 5 10 10 -3 6 -8 10 -10 10 -2
0 -7 -4 -10 -10z"/>
<path d="M5090 5590 c0 -5 5 -10 11 -10 5 0 7 5 4 10 -3 6 -8 10 -11 10 -2 0
-4 -4 -4 -10z"/>
<path d="M4875 5570 c-4 -6 5 -10 19 -10 14 0 26 5 26 10 0 6 -9 10 -19 10
-11 0 -23 -4 -26 -10z"/>
<path d="M5199 5465 c-13 -13 -32 -25 -41 -25 -10 0 -18 -4 -18 -10 0 -5 5
-10 10 -10 6 0 10 -7 10 -15 0 -31 29 -15 32 18 2 24 7 31 21 29 11 -2 17 4
17 18 0 26 -3 25 -31 -5z"/>
<path d="M5252 5325 c-14 -31 -10 -41 10 -28 9 5 12 17 9 32 l-6 24 -13 -28z"/>
<path d="M5188 5313 c-5 -24 1 -53 12 -53 5 0 7 14 5 31 -5 38 -11 46 -17 22z"/>
<path d="M5170 5240 c0 -5 7 -10 15 -10 8 0 15 5 15 10 0 6 -7 10 -15 10 -8 0
-15 -4 -15 -10z"/>
<path d="M5190 5200 c0 -5 5 -10 10 -10 6 0 10 -8 10 -17 0 -13 3 -14 11 -6 9
9 8 16 -4 27 -18 18 -27 20 -27 6z"/>
<path d="M5180 4860 c0 -5 5 -10 10 -10 6 0 10 5 10 10 0 6 -4 10 -10 10 -5 0
-10 -4 -10 -10z"/>
<path d="M5010 4220 c0 -5 5 -10 10 -10 6 0 10 5 10 10 0 6 -4 10 -10 10 -5 0
-10 -4 -10 -10z"/>
<path d="M5020 4010 c0 -5 7 -7 15 -4 8 4 15 8 15 10 0 2 -7 4 -15 4 -8 0 -15
-4 -15 -10z"/>
<path d="M5178 3977 c-3 -15 -2 -27 3 -27 13 0 17 14 9 35 -6 17 -7 16 -12 -8z"/>
<path d="M5024 3874 c3 -9 6 -18 6 -20 0 -13 19 -1 23 16 4 15 0 20 -15 20
-14 0 -18 -5 -14 -16z"/>
<path d="M4880 3590 c0 -5 5 -10 11 -10 5 0 7 5 4 10 -3 6 -8 10 -11 10 -2 0
-4 -4 -4 -10z"/>
<path d="M5801 4867 c-13 -16 -5 -27 21 -27 20 0 21 1 12 24 -7 20 -18 20 -33
3z"/>
<path d="M5718 4638 c-13 -38 20 -95 38 -66 4 7 3 8 -4 4 -11 -7 -17 17 -13
51 2 16 -16 26 -21 11z"/>
<path d="M5928 6025 c-4 -19 -1 -25 13 -25 14 0 19 7 19 25 0 15 -6 25 -14 25
-7 0 -16 -11 -18 -25z"/>
<path d="M5886 5782 c-3 -5 1 -18 9 -28 14 -18 15 -18 12 3 -4 27 -13 38 -21
25z"/>
<path d="M5930 5259 c0 -24 23 -21 28 4 2 10 -3 17 -12 17 -10 0 -16 -9 -16
-21z"/>
<path d="M5930 5110 c11 -11 22 -20 25 -20 3 0 5 9 5 20 0 15 -7 20 -25 20
l-25 0 20 -20z"/>
<path d="M5890 4560 c-17 -10 -14 -15 18 -24 18 -6 22 -3 22 13 0 22 -16 27
-40 11z"/>
</g>
</svg>
